<?xml version='1.0' encoding='utf-8'?>
<svg xmlns="http://www.w3.org/2000/svg" width="1920" height="1080" viewBox="0 0 1920 1080" data-theme="dark">
  <style>
        @font-face {
            font-family: 'Inter';
            src: url('assets/fonts/Inter-Regular.ttf') format('truetype');
            font-weight: 400;
            font-style: normal;
            font-display: swap;
        }
        @font-face {
            font-family: 'Inter';
            src: url('assets/fonts/Inter-Bold.ttf') format('truetype');
            font-weight: 600;
            font-style: normal;
            font-display: swap;
        }
        @font-face {
            font-family: 'Inter';
            src: url('assets/fonts/Inter-Bold.ttf') format('truetype');
            font-weight: 800;
            font-style: normal;
            font-display: swap;
        }
        
:root {
    --background: #0f172a;
    --panel: #1e293b;
    --primary-text: #f1f5f9;
    --muted-text: #94a3b8;
    --inverse-text: #0f172a;
    --border: #334155;
    --shadow-color: #000000;
    --icon-pad-bg: #1e293b;
    --art-glow: #7dd3fc;
    --art-glow-opacity: 0.18;
    --art-sheen: #ffffff;
    --art-sheen-opacity: 0.18;
    --art-shadow: #000000;
    --art-shadow-opacity: 0.28;
    --art-muted-line: #64748b;
    --art-panel-tint: #1e293b;
    --font-family: 'Inter', 'Segoe UI', 'Kalam', Roboto, Helvetica, Arial, sans-serif;
    --radius-xl: 16px;
    --font-family-headline: 'Inter', 'Segoe UI', 'Kalam', Roboto, Helvetica, Arial, sans-serif;
    --font-family-body: 'Inter', 'Segoe UI', 'Kalam', Roboto, Helvetica, Arial, sans-serif;
    --font-heading: 'Inter', 'Segoe UI', 'Kalam', Roboto, Helvetica, Arial, sans-serif;
    --font-body: 'Inter', 'Segoe UI', 'Kalam', Roboto, Helvetica, Arial, sans-serif;
    --font-size-h1: 56px;
    --font-size-h2: 40px;
    --font-size-h3: 28px;
    --font-size-body: 24px;
    --font-size-caption: 18px;
    --secondary-text: var(--muted-text);
    --panel-border: var(--border);
    --font-weight-normal: 400;
    --font-weight-medium: 500;
    --font-weight-semibold: 600;
    --font-weight-bold: 700;
    --spacing-gutter-pct: 0.07;
    --spacing-top-pct: 0.15;
    --spacing-bottom-pct: 0.07;
    --spacing-title-y-pct: 0.055;
    --accent-1: #60a5fa;
    --accent-2: #4ade80;
    --accent-3: #f97316;
    --accent-4: #a78bfa;
    --accent-5: #38bdf8;
    --accent-6: #94a3b8;
}
:root[data-theme="dark"] {
    --background: #0f172a;
    --panel: #1e293b;
    --primary-text: #f1f5f9;
    --muted-text: #94a3b8;
    --inverse-text: #0f172a;
    --border: #334155;
    --shadow-color: #000000;
    --icon-pad-bg: #1e293b;
    --art-glow: #7dd3fc;
    --art-glow-opacity: 0.18;
    --art-sheen: #ffffff;
    --art-sheen-opacity: 0.18;
    --art-shadow: #000000;
    --art-shadow-opacity: 0.28;
    --art-muted-line: #64748b;
    --art-panel-tint: #1e293b;
    --accent-1: #60a5fa;
    --accent-2: #4ade80;
    --accent-3: #f97316;
    --accent-4: #a78bfa;
    --accent-5: #38bdf8;
    --accent-6: #94a3b8;
}
:root[data-theme="light"] {
    --background: #f8fafc;
    --panel: #ffffff;
    --primary-text: #0f172a;
    --muted-text: #64748b;
    --inverse-text: #ffffff;
    --border: #e2e8f0;
    --shadow-color: #000000;
    --icon-pad-bg: #1e293b;
    --art-glow: #0891b2;
    --art-glow-opacity: 0.10;
    --art-sheen: #ffffff;
    --art-sheen-opacity: 0.34;
    --art-shadow: #0f172a;
    --art-shadow-opacity: 0.14;
    --art-muted-line: #94a3b8;
    --art-panel-tint: #f1f5f9;
    --accent-1: #2563eb;
    --accent-2: #16a34a;
    --accent-3: #ea580c;
    --accent-4: #7c3aed;
    --accent-5: #0284c7;
    --accent-6: #475569;
}</style>
  <rect x="0" y="0" width="1.92E+3" height="1.08E+3" fill="#252a34" stroke="none" id="programmatic_background"/>
  <line id="HEADER_DECOR" x1="960.0" x2="1080.0" y1="135.0" y2="135.0" stroke="var(--accent-1)" stroke-width="6" stroke-linecap="round"/>
  <defs>
    <pattern id="svgf24d7870-napkin-hatch" patternUnits="userSpaceOnUse" width="12" height="12">
      <path d="M -3 12 L 12 -3 M 0 15 L 15 0" fill="none" stroke="var(--primary-text)" stroke-width="1" stroke-opacity="0.05"/>
    </pattern>
    <filter id="svgf24d7870-shadow" x="-30%" y="-30%" width="160%" height="160%">
      <feDropShadow dx="0" dy="2" stdDeviation="3" flood-color="#000000" flood-opacity="0.08"/>
      <feDropShadow dx="0" dy="6" stdDeviation="10" flood-color="#000000" flood-opacity="0.12"/>
    </filter>
    <marker id="svgf24d7870-arrowhead" markerWidth="10" markerHeight="10" refX="9" refY="5" orient="auto">
      <path d="M 0 0 L 10 5 L 0 10 Z" fill="var(--accent-1)"/>
    </marker>
    <filter id="svgf24d7870-text-glow" x="-20%" y="-20%" width="140%" height="140%">
      <feDropShadow dx="0" dy="0" stdDeviation="2" flood-color="#000000" flood-opacity="0.4"/>
    </filter>
    <radialGradient id="svgf24d7870-universal-edge-vignette" cx="50%" cy="50%" r="72%">
      <stop offset="0%" stop-color="var(--background)" stop-opacity="0"/>
      <stop offset="72%" stop-color="var(--background)" stop-opacity="0.12"/>
      <stop offset="100%" stop-color="var(--primary-text)" stop-opacity="0.08"/>
    </radialGradient>
    <linearGradient id="svgf24d7870-universal-surface-sheen" x1="0%" y1="0%" x2="100%" y2="100%">
      <stop offset="0%" stop-color="var(--art-sheen)" stop-opacity="var(--art-sheen-opacity)"/>
      <stop offset="46%" stop-color="var(--art-sheen)" stop-opacity="0.035"/>
      <stop offset="100%" stop-color="var(--art-panel-tint)" stop-opacity="0.14"/>
    </linearGradient>
    <radialGradient id="svgf24d7870-universal-icon-aura" cx="50%" cy="42%" r="64%">
      <stop offset="0%" stop-color="var(--art-glow)" stop-opacity="var(--art-glow-opacity)"/>
      <stop offset="100%" stop-color="var(--background)" stop-opacity="0"/>
    </radialGradient>
    <linearGradient id="svgf24d7870-myth-card-sheen" x1="0%" y1="0%" x2="100%" y2="100%">
      <stop offset="0%" stop-color="var(--inverse-text)" stop-opacity="0.18"/>
      <stop offset="56%" stop-color="var(--inverse-text)" stop-opacity="0.03"/>
      <stop offset="100%" stop-color="var(--background)" stop-opacity="0.12"/>
    </linearGradient>
  </defs>
  <rect width="100%" height="100%" fill="var(--background)" id="CANVAS_BG"/>
  <rect width="100%" height="100%" fill="url(#svgf24d7870-napkin-hatch)"/>
  <rect id="UNIVERSAL_EDGE_VIGNETTE" width="100%" height="100%" fill="url(#svgf24d7870-universal-edge-vignette)" opacity="0.62"/>
  <text id="TITLE" x="960.0" y="59" text-anchor="middle" font-weight="800" font-size="56" fill="#f1f5f9" style="font-size: 60px; font-family: Inter, Segoe UI, Kalam, Roboto, Helvetica, Arial, sans-serif; font-weight: 700; letter-spacing:-1.2px;" data-final-font-size="60">
    <tspan x="960.0" dy="68.00px">Word-by-Word vs Phrase Reading</tspan>
  </text>
  <rect id="TITLE_FRAME" x="134" y="59" width="1652" height="103" fill="none"/>
  <g transform="translate(0, 190) scale(1.0)">
    <path d="M 920 -8 C 950 80 950 720 920 808" stroke="var(--primary-text)" stroke-width="2" stroke-opacity="0.10" fill="none"/>
    <path d="M 1000 -8 C 970 80 970 720 1000 808" stroke="var(--primary-text)" stroke-width="2" stroke-opacity="0.10" fill="none"/>
    <text x="480.0" y="0" text-anchor="middle" font-weight="900" font-size="52" fill="var(--accent-1)">MYTHS</text>
    <text x="1440.0" y="0" text-anchor="middle" font-weight="900" font-size="52" fill="var(--accent-2)">REALITY</text>
    <!-- Row 1 - cards at y=130 -->
    <g transform="translate(480.0, 130.0)">
      <rect id="ITEM_1_ACCENT_BG" x="-400" y="-110" width="800" height="245" rx="24" fill="var(--accent-6)" fill-opacity="0.15" stroke="none"/>
      <rect id="ITEM_1_BG" x="-400" y="-110" width="800" height="245" rx="18" fill="var(--panel)" stroke="var(--accent-1)" filter="url(#svgf24d7870-shadow)" stroke-width="3"/>
      <rect x="-388" y="-98" width="776" height="221" rx="16" fill="url(#svgf24d7870-myth-card-sheen)" opacity="0.92"/>
      <circle id="ITEM_1_PAD" cx="-330" cy="-40" r="46" fill="var(--icon-pad-bg)" stroke="var(--background)" stroke-width="2" stroke-opacity="0.65" opacity="0.94" fill-opacity="0.9"/>
      <circle id="ITEM_1_PAD_INNER" cx="-330" cy="-40" r="35.88" fill="var(--accent-6)" fill-opacity="0.22"/>
      <circle cx="-330" cy="-40" r="34" fill="none" stroke="var(--accent-1)" stroke-width="3" stroke-dasharray="6 4"/>
      <g id="ITEM_1_ICON" transform="translate(-358, -68)" data-icon-size="56" stroke-dasharray="6 4">
        <g transform="translate(-7.880000000000003,-7.880000000000003) scale(5.125714285714286)" vector-effect="non-scaling-stroke" stroke-width="2.38" stroke-linecap="round" stroke-linejoin="round" stroke-opacity="1.0">
          <path id="Vector" fill="none" d="M9 10 7 8.5 5 10v2l2 1.5L9 12v-2Z" vector-effect="non-scaling-stroke" stroke="#f1f5f9"/>
          <path id="Vector_2" stroke="#f1f5f9" d="M9 10 7 8.5 5 10v2l2 1.5L9 12v-2Z" vector-effect="non-scaling-stroke" fill="none"/>
          <path id="Vector_3" stroke="#f1f5f9" d="M9 10.0826c1.0528 -0.4595 1.9153 -1.26748 2.4424 -2.28808 0.5272 -1.02061 0.6868 -2.1916 0.4521 -3.31607 -0.2347 -1.12447 -0.8494 -2.13384 -1.7408 -2.85838C9.26237 0.895525 8.1487 0.5 7 0.5 5.8513 0.5 4.73763 0.895525 3.84625 1.62007c-0.89138 0.72454 -1.50609 1.73391 -1.74078 2.85838 -0.23469 1.12447 -0.07504 2.29546 0.4521 3.31607C3.08471 8.81512 3.9472 9.6231 5 10.0826" vector-effect="non-scaling-stroke" fill="none"/>
        </g>
      </g>
      <text id="ITEM_1_HEAD" x="0.0" y="-85.0" text-anchor="middle" font-weight="bold" font-size="28" fill="var(--accent-6)" data-bg-id="ITEM_1_BG" fill-opacity="1.0" stroke="none" style="font-size: 30px; font-family: Inter, Segoe UI, Kalam, Roboto, Helvetica, Arial, sans-serif; font-weight: 700; letter-spacing:-0.4px;" data-final-font-size="30">
        <tspan x="0.0" dy="37.75px">Individual Units</tspan>
      </text>
      <rect id="ITEM_1_HEAD_FRAME" x="-310" y="-85" width="620" height="50" fill="none"/>
      <text id="ITEM_1_BODY" x="0.0" y="-20.0" text-anchor="middle" font-size="22" fill="var(--primary-text)" opacity="0.88" data-bg-id="ITEM_1_BG" style="font-size: 26px; font-family: Inter, Segoe UI, Kalam, Roboto, Helvetica, Arial, sans-serif; font-weight: 400;" data-final-font-size="26">
        <tspan x="0.0" dy="51.40px">Process every word as a separate mental event</tspan>
      </text>
      <rect id="ITEM_1_BODY_FRAME" x="-310" y="-20" width="620" height="155" fill="none"/>
    </g>
    <g transform="translate(1440.0, 130.0)">
      <rect id="ITEM_2_ACCENT_BG" x="-400" y="-110" width="800" height="245" rx="24" fill="var(--accent-2)" fill-opacity="0.15" stroke="none"/>
      <rect id="ITEM_2_BG" x="-400" y="-110" width="800" height="245" rx="18" fill="var(--panel)" stroke="var(--accent-2)" filter="url(#svgf24d7870-shadow)" stroke-width="3"/>
      <rect x="-388" y="-98" width="776" height="221" rx="16" fill="url(#svgf24d7870-myth-card-sheen)" opacity="0.92"/>
      <circle id="ITEM_2_PAD" cx="330" cy="-40" r="46" fill="var(--icon-pad-bg)" stroke="var(--background)" stroke-width="2" stroke-opacity="0.65" opacity="0.94" fill-opacity="0.9"/>
      <circle id="ITEM_2_PAD_INNER" cx="330" cy="-40" r="35.88" fill="var(--accent-2)" fill-opacity="0.22"/>
      <circle cx="330" cy="-40" r="34" fill="none" stroke="var(--accent-2)" stroke-width="3" stroke-dasharray="6 4"/>
      <g id="ITEM_2_ICON" transform="translate(302, -68)" data-icon-size="56" stroke-dasharray="6 4">
        <g transform="translate(-11.591724137931038,-11.591724137931038) scale(0.15465517241379312)" vector-effect="non-scaling-stroke" fill="#f1f5f9" fill-opacity="1.0" stroke="none">
          <path fill="#f1f5f9" d="m37.727 25l78 78h280.546l78-78zM25 37.727v436.546l78-78V115.727zm462 0l-78 78v280.546l78 78zM79.957 40a8 8 0 0 1 8 8a8 8 0 0 1-8 8a8 8 0 0 1-8-8a8 8 0 0 1 8-8M432 40.793a8 8 0 0 1 8 8a8 8 0 0 1-8 8a8 8 0 0 1-8-8a8 8 0 0 1 8-8M112 72a8 8 0 0 1 8 8a8 8 0 0 1-8 8a8 8 0 0 1-8-8a8 8 0 0 1 8-8m287.45 0a8 8 0 0 1 8 8a8 8 0 0 1-8 8a8 8 0 0 1-8-8a8 8 0 0 1 8-8m63.42 0a8 8 0 0 1 8 8a8 8 0 0 1-8 8a8 8 0 0 1-8-8a8 8 0 0 1 8-8M48 73.047a8 8 0 0 1 8 8a8 8 0 0 1-8 8a8 8 0 0 1-8-8a8 8 0 0 1 8-8M79.395 104a8 8 0 0 1 8 8a8 8 0 0 1-8 8a8 8 0 0 1-8-8a8 8 0 0 1 8-8m352.605.2a8 8 0 0 1 8 8a8 8 0 0 1-8 8a8 8 0 0 1-8-8a8 8 0 0 1 8-8M121 121v193.273l53.7-53.7L174.065 121zm71.064 0l.555 121.654l54.38-54.38V121h-54.936zM265 121v49.273L314.273 121zm74.727 0L121 339.727V391h51.273L391 172.273V121zM391 197.727l-53.023 53.023V391H391zm-71.023 71.023L265 323.727V391h54.977zM247 341.727L197.727 391H247zM77.97 392a8 8 0 0 1 8 8a8 8 0 0 1-8 8a8 8 0 0 1-8-8a8 8 0 0 1 8-8m354.03.658a8 8 0 0 1 8 8a8 8 0 0 1-8 8a8 8 0 0 1-8-8a8 8 0 0 1 8-8M115.727 409l-78 78h436.546l-78-78zM48 423.752a8 8 0 0 1 8 8a8 8 0 0 1-8 8a8 8 0 0 1-8-8a8 8 0 0 1 8-8m64 .8a8 8 0 0 1 8 8a8 8 0 0 1-8 8a8 8 0 0 1-8-8a8 8 0 0 1 8-8m288 .712a8 8 0 0 1 8 8a8 8 0 0 1-8 8a8 8 0 0 1-8-8a8 8 0 0 1 8-8m64 4.74a8 8 0 0 1 8 8a8 8 0 0 1-8 8a8 8 0 0 1-8-8a8 8 0 0 1 8-8M432 456a8 8 0 0 1 8 8a8 8 0 0 1-8 8a8 8 0 0 1-8-8a8 8 0 0 1 8-8m-352 2.56a8 8 0 0 1 8 8a8 8 0 0 1-8 8a8 8 0 0 1-8-8a8 8 0 0 1 8-8" vector-effect="non-scaling-stroke" stroke="none"/>
        </g>
      </g>
      <text id="ITEM_2_HEAD" x="0.0" y="-85.0" text-anchor="middle" font-weight="bold" font-size="28" fill="var(--accent-2)" data-bg-id="ITEM_2_BG" fill-opacity="1.0" stroke="none" style="font-size: 30px; font-family: Inter, Segoe UI, Kalam, Roboto, Helvetica, Arial, sans-serif; font-weight: 700; letter-spacing:-0.4px;" data-final-font-size="30">
        <tspan x="0.0" dy="37.75px">Meaningful Groups</tspan>
      </text>
      <rect id="ITEM_2_HEAD_FRAME" x="-310" y="-85" width="620" height="50" fill="none"/>
      <text id="ITEM_2_BODY" x="0.0" y="-20.0" text-anchor="middle" font-size="22" fill="var(--primary-text)" opacity="0.88" data-bg-id="ITEM_2_BG" style="font-size: 26px; font-family: Inter, Segoe UI, Kalam, Roboto, Helvetica, Arial, sans-serif; font-weight: 400;" data-final-font-size="26">
        <tspan x="0.0" dy="51.40px">Group words into larger units to reduce load</tspan>
      </text>
      <rect id="ITEM_2_BODY_FRAME" x="-310" y="-20" width="620" height="155" fill="none"/>
    </g>
    <!-- Row 2 - cards at y=400 -->
    <g transform="translate(480.0, 400.0)">
      <rect id="ITEM_3_ACCENT_BG" x="-400" y="-110" width="800" height="245" rx="24" fill="var(--accent-3)" fill-opacity="0.15"/>
      <rect id="ITEM_3_BG" x="-400" y="-110" width="800" height="245" rx="18" fill="var(--panel)" stroke="var(--accent-3)" filter="url(#svgf24d7870-shadow)" stroke-width="3"/>
      <rect x="-388" y="-98" width="776" height="221" rx="16" fill="url(#svgf24d7870-myth-card-sheen)" opacity="0.92"/>
      <circle id="ITEM_3_PAD" cx="-330" cy="-40" r="46" fill="var(--icon-pad-bg)" stroke="var(--background)" stroke-width="2" stroke-opacity="0.65" opacity="0.94"/>
      <circle id="ITEM_3_PAD_INNER" cx="-330" cy="-40" r="35.88" fill="var(--accent-3)" fill-opacity="0.22"/>
      <circle cx="-330" cy="-40" r="34" fill="none" stroke="var(--accent-3)" stroke-width="3" stroke-dasharray="6 4"/>
      <g id="ITEM_3_ICON" transform="translate(-358, -68)" data-icon-size="56" stroke-dasharray="6 4">
        <g transform="translate(-13.326071428571435,-13.005714285714289) scale(2.562857142857143)">
          <path d="M18.015 6L16.015 5L14.015 6V9H18.015V6ZM10.645 11.19L8.195 13.64C7.695 14.14 6.895 14.14 6.405 13.64L5.375 12.61C4.875 12.11 4.875 11.31 5.375 10.82L7.825 8.37C8.325 7.87 9.125 7.87 9.615 8.37L10.655 9.41C11.145 9.89 11.145 10.7 10.645 11.19ZM23.825 13.64L21.375 11.19C20.875 10.7 20.875 9.88999 21.375 9.39999L22.415 8.35999C22.905 7.85999 23.705 7.85999 24.205 8.35999L26.655 10.81C27.155 11.3 27.155 12.1 26.655 12.6L25.615 13.64C25.125 14.14 24.325 14.14 23.825 13.64Z" fill="#D3D3D3"/>
          <path d="M13.275 6H18.745C19.445 6 20.015 5.43 20.005 4.73V3.27C20.005 2.57 19.435 2 18.735 2H13.275C12.575 2 12.015 2.57 12.005 3.27V4.73C12.005 5.43 12.575 6 13.275 6ZM27.015 19C27.015 25.0751 22.0901 30 16.015 30C9.93988 30 5.01501 25.0751 5.01501 19C5.01501 12.9249 9.93988 8 16.015 8C22.0901 8 27.015 12.9249 27.015 19Z" fill="#636363"/>
          <path d="M16.015 28C20.9856 28 25.015 23.9706 25.015 19C25.015 14.0294 20.9856 10 16.015 10C11.0445 10 7.01501 14.0294 7.01501 19C7.01501 23.9706 11.0445 28 16.015 28Z" fill="white"/>
          <path d="M19.545 14.0499L20.255 13.3399C20.645 12.9499 21.275 12.9499 21.665 13.3399C22.055 13.7299 22.055 14.3599 21.665 14.7499L20.955 15.4599C20.565 15.8499 19.935 15.8499 19.545 15.4599C19.155 15.0799 19.155 14.4399 19.545 14.0499Z" fill="#9B9B9B"/>
          <path d="M15.015 13V12C15.015 11.45 15.465 11 16.015 11C16.565 11 17.015 11.45 17.015 12V13C17.015 13.55 16.565 14 16.015 14C15.455 14 15.015 13.55 15.015 13ZM15.015 26V25C15.015 24.45 15.465 24 16.015 24C16.565 24 17.015 24.45 17.015 25V26C17.015 26.55 16.565 27 16.015 27C15.455 27 15.015 26.55 15.015 26ZM23.015 18H22.015C21.455 18 21.015 18.45 21.015 19C21.015 19.55 21.465 20 22.015 20H23.015C23.565 20 24.015 19.55 24.015 19C24.015 18.45 23.565 18 23.015 18ZM9.01501 18H10.015C10.565 18 11.015 18.45 11.015 19C11.015 19.55 10.565 20 10.015 20H9.01501C8.46501 20 8.01501 19.55 8.01501 19C8.01501 18.45 8.45501 18 9.01501 18ZM21.675 23.2501L20.965 22.5401C20.565 22.1501 19.935 22.1501 19.555 22.5401C19.165 22.9301 19.165 23.5601 19.555 23.9501L20.265 24.6601C20.655 25.0501 21.285 25.0501 21.675 24.6601C22.065 24.2701 22.065 23.6401 21.675 23.2501ZM11.765 13.35L12.475 14.06C12.865 14.45 12.865 15.08 12.475 15.47C12.085 15.86 11.455 15.86 11.065 15.47L10.355 14.76C9.965 14.37 9.965 13.74 10.355 13.35C10.745 12.95 11.375 12.95 11.765 13.35ZM11.065 22.53L10.355 23.24C9.965 23.64 9.965 24.27 10.355 24.65C10.745 25.04 11.375 25.04 11.765 24.65L12.475 23.94C12.865 23.55 12.865 22.92 12.475 22.53C12.085 22.14 11.455 22.14 11.065 22.53Z" fill="#D3D3D3"/>
          <path d="M15.305 19.7101C14.915 19.3201 14.915 18.6901 15.305 18.3001L20.255 13.3501C20.645 12.9601 21.275 12.9601 21.665 13.3501C22.055 13.7401 22.055 14.3701 21.665 14.7601L16.715 19.7101C16.325 20.1001 15.695 20.1001 15.305 19.7101Z" fill="#F8312F"/>
        </g>
      </g>
      <text id="ITEM_3_HEAD" x="0.0" y="-85.0" text-anchor="middle" font-weight="bold" font-size="28" fill="var(--accent-3)" data-bg-id="ITEM_3_BG" style="font-size: 30px; font-family: Inter, Segoe UI, Kalam, Roboto, Helvetica, Arial, sans-serif; font-weight: 700; letter-spacing:-0.4px;" data-final-font-size="30">
        <tspan x="0.0" dy="37.75px">High Cognitive Load</tspan>
      </text>
      <rect id="ITEM_3_HEAD_FRAME" x="-310" y="-85" width="620" height="50" fill="none"/>
      <text id="ITEM_3_BODY" x="0.0" y="-20.0" text-anchor="middle" font-size="22" fill="var(--primary-text)" opacity="0.88" data-bg-id="ITEM_3_BG" style="font-size: 26px; font-family: Inter, Segoe UI, Kalam, Roboto, Helvetica, Arial, sans-serif; font-weight: 400;" data-final-font-size="26">
        <tspan x="0.0" dy="51.40px">Heavy subvocalization slows down comprehension speed</tspan>
      </text>
      <rect id="ITEM_3_BODY_FRAME" x="-310" y="-20" width="620" height="155" fill="none"/>
    </g>
    <g transform="translate(1440.0, 400.0)">
      <rect id="ITEM_4_ACCENT_BG" x="-400" y="-110" width="800" height="245" rx="24" fill="var(--accent-4)" fill-opacity="0.15"/>
      <rect id="ITEM_4_BG" x="-400" y="-110" width="800" height="245" rx="18" fill="var(--panel)" stroke="var(--accent-4)" filter="url(#svgf24d7870-shadow)" stroke-width="3"/>
      <rect x="-388" y="-98" width="776" height="221" rx="16" fill="url(#svgf24d7870-myth-card-sheen)" opacity="0.92"/>
      <circle id="ITEM_4_PAD" cx="330" cy="-40" r="46" fill="var(--icon-pad-bg)" stroke="var(--background)" stroke-width="2" stroke-opacity="0.65" opacity="0.94"/>
      <circle id="ITEM_4_PAD_INNER" cx="330" cy="-40" r="35.88" fill="var(--accent-4)" fill-opacity="0.22"/>
      <circle cx="330" cy="-40" r="34" fill="none" stroke="var(--accent-4)" stroke-width="3" stroke-dasharray="6 4"/>
      <g id="ITEM_4_ICON" transform="translate(302, -68)" data-icon-size="56" stroke-dasharray="6 4">
        <g transform="translate(-13.00571428571429,-13.005714285714289) scale(2.562857142857143)">
          <path d="M22.39 30H9.61C8.17 30 7 28.8271 7 27.3835V4.61654C7 3.17293 8.17 2 9.61 2H22.39C23.83 2 25 3.17293 25 4.61654V27.3835C25 28.8271 23.83 30 22.39 30Z" fill="black"/>
          <path d="M9.74454 15.5H22.2653C23.2223 15.5 24.0099 14.7056 23.9999 13.7401V4.75986C23.9999 3.78439 23.2223 3 22.2554 3H9.74454C8.77757 3 8 3.78439 8 4.75986V13.7401C8 14.7156 8.77757 15.5 9.74454 15.5Z" fill="#433B6B"/>
          <path d="M9.74454 29H22.2653C23.2223 29 24.0099 28.2056 23.9999 27.2401V18.2599C23.9999 17.2844 23.2223 16.5 22.2554 16.5H9.74454C8.77757 16.5 8 17.2844 8 18.2599V27.2401C8 28.2156 8.77757 29 9.74454 29Z" fill="#433B6B"/>
          <path d="M13.53 8.1H18.43C18.87 8.1 19.22 7.75 19.22 7.31V5.73C19.22 5.29 18.86 4.94 18.43 4.94H13.53C13.09 4.94 12.74 5.3 12.74 5.73V7.31C12.74 7.75 13.1 8.1 13.53 8.1Z" fill="#F4F4F4"/>
          <path d="M13.53 21.52H18.43C18.87 21.52 19.22 21.17 19.22 20.73V19.15C19.22 18.71 18.86 18.36 18.43 18.36H13.53C13.09 18.36 12.74 18.72 12.74 19.15V20.73C12.74 21.17 13.1 21.52 13.53 21.52Z" fill="#F4F4F4"/>
          <path d="M13.53 4.5672C12.881 4.5672 12.3672 5.09718 12.3672 5.73V7.31C12.3672 7.95895 12.8972 8.4728 13.53 8.4728H18.43C19.0759 8.4728 19.5928 7.95589 19.5928 7.31V5.73C19.5928 5.08104 19.0628 4.5672 18.43 4.5672H13.53ZM13.1128 5.73C13.1128 5.50282 13.2989 5.3128 13.53 5.3128H18.43C18.6572 5.3128 18.8472 5.49895 18.8472 5.73V7.31C18.8472 7.54411 18.6641 7.7272 18.43 7.7272H13.53C13.3028 7.7272 13.1128 7.54104 13.1128 7.31V5.73Z" fill="#8D65C5"/>
          <path d="M13.11 10.18C12.6958 10.18 12.36 10.5158 12.36 10.93C12.36 11.3442 12.6958 11.68 13.11 11.68H18.83C19.2442 11.68 19.58 11.3442 19.58 10.93C19.58 10.5158 19.2442 10.18 18.83 10.18H13.11Z" fill="#8D65C5"/>
          <path d="M12.3672 19.15C12.3672 18.5172 12.881 17.9872 13.53 17.9872H18.43C19.0628 17.9872 19.5928 18.501 19.5928 19.15V20.73C19.5928 21.3759 19.0759 21.8928 18.43 21.8928H13.53C12.8972 21.8928 12.3672 21.379 12.3672 20.73V19.15ZM13.53 18.7328C13.2989 18.7328 13.1128 18.9228 13.1128 19.15V20.73C13.1128 20.961 13.3028 21.1472 13.53 21.1472H18.43C18.6641 21.1472 18.8472 20.9641 18.8472 20.73V19.15C18.8472 18.919 18.6572 18.7328 18.43 18.7328H13.53Z" fill="#8D65C5"/>
          <path d="M13.11 23.6C12.6958 23.6 12.36 23.9358 12.36 24.35C12.36 24.7642 12.6958 25.1 13.11 25.1H18.83C19.2442 25.1 19.58 24.7642 19.58 24.35C19.58 23.9358 19.2442 23.6 18.83 23.6H13.11Z" fill="#8D65C5"/>
        </g>
      </g>
      <text id="ITEM_4_HEAD" x="0.0" y="-85.0" text-anchor="middle" font-weight="bold" font-size="28" fill="var(--accent-4)" data-bg-id="ITEM_4_BG" style="font-size: 30px; font-family: Inter, Segoe UI, Kalam, Roboto, Helvetica, Arial, sans-serif; font-weight: 700; letter-spacing:-0.4px;" data-final-font-size="30">
        <tspan x="0.0" dy="37.75px">Efficient Processing</tspan>
      </text>
      <rect id="ITEM_4_HEAD_FRAME" x="-310" y="-85" width="620" height="50" fill="none"/>
      <text id="ITEM_4_BODY" x="0.0" y="-20.0" text-anchor="middle" font-size="22" fill="var(--primary-text)" opacity="0.88" data-bg-id="ITEM_4_BG" style="font-size: 26px; font-family: Inter, Segoe UI, Kalam, Roboto, Helvetica, Arial, sans-serif; font-weight: 400;" data-final-font-size="26">
        <tspan x="0.0" dy="51.40px">Chunking allows information to be retained effectively</tspan>
      </text>
      <rect id="ITEM_4_BODY_FRAME" x="-310" y="-20" width="620" height="155" fill="none"/>
    </g>
    <!-- Row 3 - cards at y=670 -->
    <g transform="translate(480.0, 670.0)">
      <rect id="ITEM_5_ACCENT_BG" x="-400" y="-110" width="800" height="245" rx="24" fill="var(--accent-5)" fill-opacity="0.15"/>
      <rect id="ITEM_5_BG" x="-400" y="-110" width="800" height="245" rx="18" fill="var(--panel)" stroke="var(--accent-5)" filter="url(#svgf24d7870-shadow)" stroke-width="3"/>
      <rect x="-388" y="-98" width="776" height="221" rx="16" fill="url(#svgf24d7870-myth-card-sheen)" opacity="0.92"/>
      <circle id="ITEM_5_PAD" cx="-330" cy="-40" r="46" fill="var(--icon-pad-bg)" stroke="var(--background)" stroke-width="2" stroke-opacity="0.65" opacity="0.94"/>
      <circle id="ITEM_5_PAD_INNER" cx="-330" cy="-40" r="35.88" fill="var(--accent-5)" fill-opacity="0.22"/>
      <circle cx="-330" cy="-40" r="34" fill="none" stroke="var(--accent-5)" stroke-width="3" stroke-dasharray="6 4"/>
      <g id="ITEM_5_ICON" transform="translate(-358, -68)" data-icon-size="56" stroke-dasharray="6 4">
        <g transform="translate(-13.005714285714289,-12.365000000000007) scale(2.562857142857143)">
          <path d="M25.0642 23.4047L23.9155 20.598L22.2011 21.2996L23.3511 24.1097L23.3525 24.113C23.5183 24.5137 23.3281 24.9545 22.9426 25.1096L18.0368 27.1219L18.0342 27.123C17.6335 27.2888 17.1927 27.0987 17.0376 26.7132L15.8855 23.898L14.1711 24.5997L15.3202 27.4074C15.8659 28.7594 17.403 29.3881 18.741 28.8353L18.7425 28.8347L23.6372 26.8268C24.9889 26.281 25.6173 24.7444 25.065 23.4066L25.0642 23.4047ZM8 23.5L9.70824 26.7789C10.3282 27.4289 10.2982 28.4589 9.63824 29.0689C8.98824 29.6789 7.95824 29.6489 7.34824 28.9989L2.43824 23.7889C1.82824 23.1389 1.85824 22.1089 2.50824 21.4989C3.15824 20.8889 4.18824 20.9189 4.79824 21.5689L8 23.5Z" fill="#FFB02E"/>
          <path d="M29.2283 15.0788L17.6783 2.82884C16.4083 1.47884 14.1783 1.82887 13.3883 3.50887L4.79834 21.5689L9.76834 26.8389L28.3083 19.3288C30.0183 18.6388 30.4983 16.4288 29.2283 15.0788Z" fill="#F9C23C"/>
        </g>
      </g>
      <text id="ITEM_5_HEAD" x="0.0" y="-85.0" text-anchor="middle" font-weight="bold" font-size="28" fill="var(--accent-5)" data-bg-id="ITEM_5_BG" style="font-size: 30px; font-family: Inter, Segoe UI, Kalam, Roboto, Helvetica, Arial, sans-serif; font-weight: 700; letter-spacing:-0.4px;" data-final-font-size="30">
        <tspan x="0.0" dy="37.75px">Slow Narration</tspan>
      </text>
      <rect id="ITEM_5_HEAD_FRAME" x="-310" y="-85" width="620" height="50" fill="none"/>
      <text id="ITEM_5_BODY" x="0.0" y="-20.0" text-anchor="middle" font-size="22" fill="var(--primary-text)" opacity="0.88" data-bg-id="ITEM_5_BG" style="font-size: 26px; font-family: Inter, Segoe UI, Kalam, Roboto, Helvetica, Arial, sans-serif; font-weight: 400;" data-final-font-size="26">
        <tspan x="0.0" dy="51.40px">Inner voice pronounces every word separately</tspan>
      </text>
      <rect id="ITEM_5_BODY_FRAME" x="-310" y="-20" width="620" height="155" fill="none"/>
    </g>
  </g>
</svg>
