<?xml version='1.0' encoding='utf-8'?>
<svg xmlns="http://www.w3.org/2000/svg" width="1920" height="1080" viewBox="0 0 1920 1080" data-theme="dark">
  <style>
        @font-face {
            font-family: 'Inter';
            src: url('assets/fonts/Inter-Regular.ttf') format('truetype');
            font-weight: 400;
            font-style: normal;
            font-display: swap;
        }
        @font-face {
            font-family: 'Inter';
            src: url('assets/fonts/Inter-Bold.ttf') format('truetype');
            font-weight: 600;
            font-style: normal;
            font-display: swap;
        }
        @font-face {
            font-family: 'Inter';
            src: url('assets/fonts/Inter-Bold.ttf') format('truetype');
            font-weight: 800;
            font-style: normal;
            font-display: swap;
        }
        
:root {
    --background: #0f172a;
    --panel: #1e293b;
    --primary-text: #f1f5f9;
    --muted-text: #94a3b8;
    --inverse-text: #0f172a;
    --border: #334155;
    --shadow-color: #000000;
    --icon-pad-bg: #1e293b;
    --art-glow: #7dd3fc;
    --art-glow-opacity: 0.18;
    --art-sheen: #ffffff;
    --art-sheen-opacity: 0.18;
    --art-shadow: #000000;
    --art-shadow-opacity: 0.28;
    --art-muted-line: #64748b;
    --art-panel-tint: #1e293b;
    --font-family: 'Inter', 'Segoe UI', 'Kalam', Roboto, Helvetica, Arial, sans-serif;
    --radius-xl: 16px;
    --font-family-headline: 'Inter', 'Segoe UI', 'Kalam', Roboto, Helvetica, Arial, sans-serif;
    --font-family-body: 'Inter', 'Segoe UI', 'Kalam', Roboto, Helvetica, Arial, sans-serif;
    --font-heading: 'Inter', 'Segoe UI', 'Kalam', Roboto, Helvetica, Arial, sans-serif;
    --font-body: 'Inter', 'Segoe UI', 'Kalam', Roboto, Helvetica, Arial, sans-serif;
    --font-size-h1: 56px;
    --font-size-h2: 40px;
    --font-size-h3: 28px;
    --font-size-body: 24px;
    --font-size-caption: 18px;
    --secondary-text: var(--muted-text);
    --panel-border: var(--border);
    --font-weight-normal: 400;
    --font-weight-medium: 500;
    --font-weight-semibold: 600;
    --font-weight-bold: 700;
    --spacing-gutter-pct: 0.07;
    --spacing-top-pct: 0.15;
    --spacing-bottom-pct: 0.07;
    --spacing-title-y-pct: 0.055;
    --accent-1: #93c5fd;
    --accent-2: #86efac;
    --accent-3: #fcd34d;
    --accent-4: #f9a8d4;
    --accent-5: #c4b5fd;
    --accent-6: #a5f3fc;
}
:root[data-theme="dark"] {
    --background: #0f172a;
    --panel: #1e293b;
    --primary-text: #f1f5f9;
    --muted-text: #94a3b8;
    --inverse-text: #0f172a;
    --border: #334155;
    --shadow-color: #000000;
    --icon-pad-bg: #1e293b;
    --art-glow: #7dd3fc;
    --art-glow-opacity: 0.18;
    --art-sheen: #ffffff;
    --art-sheen-opacity: 0.18;
    --art-shadow: #000000;
    --art-shadow-opacity: 0.28;
    --art-muted-line: #64748b;
    --art-panel-tint: #1e293b;
    --accent-1: #93c5fd;
    --accent-2: #86efac;
    --accent-3: #fcd34d;
    --accent-4: #f9a8d4;
    --accent-5: #c4b5fd;
    --accent-6: #a5f3fc;
}
:root[data-theme="light"] {
    --background: #f8fafc;
    --panel: #ffffff;
    --primary-text: #0f172a;
    --muted-text: #64748b;
    --inverse-text: #ffffff;
    --border: #e2e8f0;
    --shadow-color: #000000;
    --icon-pad-bg: #1e293b;
    --art-glow: #0891b2;
    --art-glow-opacity: 0.10;
    --art-sheen: #ffffff;
    --art-sheen-opacity: 0.34;
    --art-shadow: #0f172a;
    --art-shadow-opacity: 0.14;
    --art-muted-line: #94a3b8;
    --art-panel-tint: #f1f5f9;
    --accent-1: #3b82f6;
    --accent-2: #22c55e;
    --accent-3: #f59e0b;
    --accent-4: #ec4899;
    --accent-5: #8b5cf6;
    --accent-6: #06b6d4;
}</style>
  <rect x="0" y="0" width="1.92E+3" height="1.08E+3" fill="#252a34" stroke="none" id="programmatic_background"/>
  <line id="HEADER_DECOR" x1="960.0" x2="1080.0" y1="135.0" y2="135.0" stroke="var(--accent-1)" stroke-width="6" stroke-linecap="round"/>
  <defs>
    <filter id="svgb08f7c57-neon-glow" x="-50%" y="-50%" width="200%" height="200%">
      <feGaussianBlur stdDeviation="8" result="blur"/>
      <feComposite in="SourceGraphic" in2="blur" operator="over"/>
    </filter>
    <pattern id="svgb08f7c57-grid" width="40" height="40" patternUnits="userSpaceOnUse">
      <path d="M 40 0 L 0 0 0 40" fill="none" stroke="var(--primary-text)" stroke-width="1" opacity="0.05"/>
    </pattern>
    <radialGradient id="svgb08f7c57-universal-edge-vignette" cx="50%" cy="50%" r="72%">
      <stop offset="0%" stop-color="var(--background)" stop-opacity="0"/>
      <stop offset="72%" stop-color="var(--background)" stop-opacity="0.12"/>
      <stop offset="100%" stop-color="var(--primary-text)" stop-opacity="0.08"/>
    </radialGradient>
    <linearGradient id="svgb08f7c57-universal-surface-sheen" x1="0%" y1="0%" x2="100%" y2="100%">
      <stop offset="0%" stop-color="var(--art-sheen)" stop-opacity="var(--art-sheen-opacity)"/>
      <stop offset="46%" stop-color="var(--art-sheen)" stop-opacity="0.035"/>
      <stop offset="100%" stop-color="var(--art-panel-tint)" stop-opacity="0.14"/>
    </linearGradient>
    <radialGradient id="svgb08f7c57-universal-icon-aura" cx="50%" cy="42%" r="64%">
      <stop offset="0%" stop-color="var(--art-glow)" stop-opacity="var(--art-glow-opacity)"/>
      <stop offset="100%" stop-color="var(--background)" stop-opacity="0"/>
    </radialGradient>
    <radialGradient id="svgb08f7c57-circuit-board-art-glow" cx="50%" cy="52%" r="68%">
      <stop offset="0%" stop-color="var(--inverse-text)" stop-opacity="0.14"/>
      <stop offset="100%" stop-color="var(--background)" stop-opacity="0"/>
    </radialGradient>
    <linearGradient id="svgb08f7c57-circuit-board-art-sheen" x1="16%" y1="0%" x2="86%" y2="100%">
      <stop offset="0%" stop-color="var(--inverse-text)" stop-opacity="0.22"/>
      <stop offset="52%" stop-color="var(--inverse-text)" stop-opacity="0.035"/>
      <stop offset="100%" stop-color="var(--background)" stop-opacity="0.14"/>
    </linearGradient>
    <filter id="svgb08f7c57-text-glow" x="-20%" y="-20%" width="140%" height="140%">
      <feDropShadow dx="0" dy="0" stdDeviation="2" flood-color="#000000" flood-opacity="0.4"/>
    </filter>
    <filter id="svgb08f7c57-shadow" x="-30%" y="-30%" width="160%" height="160%">
      <feDropShadow dx="0" dy="2" stdDeviation="3" flood-color="#000000" flood-opacity="0.08"/>
      <feDropShadow dx="0" dy="6" stdDeviation="10" flood-color="#000000" flood-opacity="0.12"/>
    </filter>
    <marker id="svgb08f7c57-arrowhead" markerWidth="10" markerHeight="7" refX="9" refY="3.5" orient="auto" markerUnits="strokeWidth">
      <polygon points="0 0, 10 3.5, 0 7" fill="var(--muted-text)" opacity="0.6"/>
    </marker>
  </defs>
  <rect width="100%" height="100%" fill="var(--background)" id="CANVAS_BG"/>
  <ellipse id="CIRCUIT-BOARD_ART_GLOW" cx="960" cy="600" rx="650" ry="340" fill="url(#svgb08f7c57-circuit-board-art-glow)" opacity="0.84"/>
  <rect id="UNIVERSAL_EDGE_VIGNETTE" width="100%" height="100%" fill="url(#svgb08f7c57-universal-edge-vignette)" opacity="0.62"/>
  <rect width="100%" height="100%" fill="url(#svgb08f7c57-grid)"/>
  <text id="TITLE" x="960.0" y="59" text-anchor="middle" font-weight="800" font-size="56" fill="#f1f5f9" style="font-size: 60px; font-family: Inter, Segoe UI, Kalam, Roboto, Helvetica, Arial, sans-serif; font-weight: 700; letter-spacing:-1.2px;" data-final-font-size="60">
    <tspan x="960.0" dy="68.00px">Slow-Read Trigger Signals in Inbox</tspan>
  </text>
  <rect id="TITLE_FRAME" x="134" y="59" width="1652" height="103" fill="none"/>
  <g transform="translate(0, 0)">
    <!-- Central motherboard core -->
    <rect x="752" y="402" width="416" height="276" fill="none" stroke="var(--primary-text)" stroke-width="2" opacity="0.22" rx="20"/>
    <rect x="780" y="430" width="360" height="220" fill="var(--panel)" fill-opacity="0.98" stroke="var(--primary-text)" stroke-width="4" rx="24" filter="url(#svgb08f7c57-neon-glow)"/>
    <rect x="826" y="454" width="268" height="88" fill="none" stroke="var(--primary-text)" stroke-width="2" opacity="0.18" rx="16"/>
    <rect x="830" y="552" width="260" height="68" fill="var(--icon-pad-bg)" fill-opacity="0.2" stroke="var(--primary-text)" stroke-width="1.5" stroke-opacity="0.18" rx="14"/>
    <!-- Core landing pads -->
    <line x1="752" y1="474" x2="780" y2="474" stroke="var(--primary-text)" stroke-width="4" opacity="0.45"/>
    <line x1="752" y1="540" x2="780" y2="540" stroke="var(--primary-text)" stroke-width="4" opacity="0.45"/>
    <line x1="752" y1="606" x2="780" y2="606" stroke="var(--primary-text)" stroke-width="4" opacity="0.45"/>
    <line x1="1140" y1="474" x2="1168" y2="474" stroke="var(--primary-text)" stroke-width="4" opacity="0.45"/>
    <line x1="1140" y1="540" x2="1168" y2="540" stroke="var(--primary-text)" stroke-width="4" opacity="0.45"/>
    <line x1="1140" y1="606" x2="1168" y2="606" stroke="var(--primary-text)" stroke-width="4" opacity="0.45"/>
    <circle cx="780" cy="474" r="11" fill="var(--icon-pad-bg)" stroke="var(--primary-text)" stroke-width="2" opacity="0.9"/>
    <circle cx="780" cy="540" r="11" fill="var(--icon-pad-bg)" stroke="var(--primary-text)" stroke-width="2" opacity="0.9"/>
    <circle cx="780" cy="606" r="11" fill="var(--icon-pad-bg)" stroke="var(--primary-text)" stroke-width="2" opacity="0.9"/>
    <circle cx="1140" cy="474" r="11" fill="var(--icon-pad-bg)" stroke="var(--primary-text)" stroke-width="2" opacity="0.9"/>
    <circle cx="1140" cy="540" r="11" fill="var(--icon-pad-bg)" stroke="var(--primary-text)" stroke-width="2" opacity="0.9"/>
    <circle cx="1140" cy="606" r="11" fill="var(--icon-pad-bg)" stroke="var(--primary-text)" stroke-width="2" opacity="0.9"/>
    <!-- Internal buswork -->
    <line x1="780" y1="474" x2="872" y2="474" stroke="var(--primary-text)" stroke-width="3" opacity="0.28"/>
    <line x1="780" y1="540" x2="890" y2="540" stroke="var(--primary-text)" stroke-width="3" opacity="0.28"/>
    <line x1="780" y1="606" x2="872" y2="606" stroke="var(--primary-text)" stroke-width="3" opacity="0.28"/>
    <line x1="1048" y1="474" x2="1140" y2="474" stroke="var(--primary-text)" stroke-width="3" opacity="0.28"/>
    <line x1="1030" y1="540" x2="1140" y2="540" stroke="var(--primary-text)" stroke-width="3" opacity="0.28"/>
    <line x1="1048" y1="606" x2="1140" y2="606" stroke="var(--primary-text)" stroke-width="3" opacity="0.28"/>
    <line x1="892" y1="500" x2="1028" y2="500" stroke="var(--primary-text)" stroke-width="2.5" opacity="0.24"/>
    <line x1="900" y1="584" x2="1020" y2="584" stroke="var(--primary-text)" stroke-width="2.5" opacity="0.24"/>
    <line x1="960" y1="474" x2="960" y2="552" stroke="var(--primary-text)" stroke-width="2.5" opacity="0.24"/>
    <circle cx="890" cy="500" r="5" fill="var(--primary-text)" opacity="0.45"/>
    <circle cx="930" cy="500" r="5" fill="var(--primary-text)" opacity="0.22"/>
    <circle cx="990" cy="500" r="5" fill="var(--primary-text)" opacity="0.22"/>
    <circle cx="1030" cy="500" r="5" fill="var(--primary-text)" opacity="0.45"/>
    <circle cx="900" cy="584" r="4" fill="var(--primary-text)" opacity="0.3"/>
    <circle cx="1020" cy="584" r="4" fill="var(--primary-text)" opacity="0.3"/>
    <circle cx="960" cy="496" r="34" fill="var(--icon-pad-bg)" stroke="var(--primary-text)" stroke-width="2" opacity="0.95"/>
    <g id="RESULT_ICON" transform="translate(934, 470)" data-icon-size="52" stroke-dasharray="6 4">
      <g transform="translate(-2.2033898305084745,-2.203389830508476) scale(2.3502824858757063)" vector-effect="non-scaling-stroke" stroke-width="2.34" stroke-linecap="round" stroke-linejoin="round" stroke-opacity="1.0">
        <polyline points="22 12 16 12 14 15 10 15 8 12 2 12" vector-effect="non-scaling-stroke" fill="none" stroke="#f1f5f9"/>
        <path d="M5.45 5.11 2 12v6a2 2 0 0 0 2 2h16a2 2 0 0 0 2-2v-6l-3.45-6.89A2 2 0 0 0 16.76 4H7.24a2 2 0 0 0-1.79 1.11z" vector-effect="non-scaling-stroke" fill="none" stroke="#f1f5f9"/>
      </g>
    </g>
    <rect id="RESULT_HEAD_FRAME" x="846" y="564" width="228" height="42" fill="none"/>
    <text id="RESULT_HEAD" x="960.0" y="564.0" font-size="28" font-weight="900" fill="#f1f5f9" text-anchor="middle" data-max-lines="3" data-min-font-size="14" style="font-size: 16px; font-family: Inter, Segoe UI, Kalam, Roboto, Helvetica, Arial, sans-serif; font-weight: 700; letter-spacing:-0.4px;" data-final-font-size="16">
      <tspan x="960.0" dy="13.80px">Slow-Read Trigger Signals</tspan>
      <tspan x="960.0" dy="20.00px">in Inbox</tspan>
    </text>
  </g>
  <g transform="translate(0, 0)">
    <!-- PCB Trace Line -->
    <path d="M 752 474 L 660 474 L 540 340 L 540 290 L 540 290" fill="none" stroke="var(--accent-1)" stroke-width="6" stroke-linejoin="bevel" opacity="0.8"/>
    <path d="M 752 474 L 660 474 L 540 340 L 540 290 L 540 290" fill="none" stroke="var(--accent-1)" stroke-width="2" filter="url(#svgb08f7c57-neon-glow)"/>
    <!-- Terminal Node (Icon Holder) -->
    <circle cx="510.0" cy="290" r="53" fill="none" stroke="var(--accent-1)" stroke-width="2" opacity="0.4"/>
    <circle cx="510.0" cy="290" r="45" fill="var(--panel)" stroke="var(--accent-1)" stroke-width="4" filter="url(#svgb08f7c57-neon-glow)"/>
    <!-- Node Data Pins -->
    <line x1="510.0" y1="230" x2="510.0" y2="245" stroke="var(--accent-1)" stroke-width="3" opacity="0.6"/>
    <line x1="510.0" y1="335" x2="510.0" y2="350" stroke="var(--accent-1)" stroke-width="3" opacity="0.6"/>
    <circle id="ITEM_1_PAD" cx="510.00" cy="290.00" r="40.00" fill="var(--icon-pad-bg)" stroke="var(--primary-text)" stroke-width="2" opacity="0.9"/>
    <circle id="ITEM_1_PAD_INNER" cx="510.00" cy="290.00" r="31.20" fill="var(--accent-2)" fill-opacity="0.22"/>
    <g id="ITEM_1_ICON" transform="translate(485.0, 265)" data-icon-size="50" stroke-dasharray="6 4">
      <g transform="translate(-8.280000000000003,-8.280000000000001) scale(0.26)" vector-effect="non-scaling-stroke" stroke-width="2.31" stroke-linecap="round" stroke-linejoin="round" stroke-opacity="1.0">
        <path d="M72,232h0a24,24,0,0,1,24-24h64a24,24,0,0,1,24,24h0" fill="none" stroke="#f1f5f9" vector-effect="non-scaling-stroke"/>
        <line x1="128" y1="168" x2="128" y2="232" fill="none" stroke="#f1f5f9" vector-effect="non-scaling-stroke"/>
        <path d="M16,128H40a40,40,0,0,0,40,40h96a40,40,0,0,0,40-40h24" fill="none" stroke="#f1f5f9" vector-effect="non-scaling-stroke"/>
        <path d="M93.72,24a8,8,0,0,0-7.92,6.87l-13.72,96A8,8,0,0,0,80,136h96a8,8,0,0,0,7.92-9.13l-13.72-96A8,8,0,0,0,162.28,24Z" fill="none" stroke="#f1f5f9" vector-effect="non-scaling-stroke"/>
      </g>
    </g>
    <rect id="ITEM_1_HEAD_FRAME" x="125.0" y="240" width="320" height="40" fill="none"/>
    <rect id="ITEM_1_TEXT_BG" x="47" y="226" width="416" height="222" rx="22" fill="var(--panel)" fill-opacity="0.94" stroke="var(--accent-1)" stroke-width="2"/>
    <text id="ITEM_1_HEAD" x="445.0" y="240.0" font-weight="bold" font-size="24" fill="var(--accent-2)" text-anchor="end" data-bg-id="ITEM_1_TEXT_BG" fill-opacity="1.0" stroke="none" style="font-size: 30px; font-family: Inter, Segoe UI, Kalam, Roboto, Helvetica, Arial, sans-serif; font-weight: 700; letter-spacing:-0.4px;" data-final-font-size="30">
      <tspan x="445.0" dy="28.25px">Sender Authority</tspan>
    </text>
    <rect id="ITEM_1_BODY_FRAME" x="65" y="310" width="380" height="120" fill="none"/>
    <text id="ITEM_1_BODY" x="445.0" y="310.0" font-size="16" fill="var(--primary-text)" text-anchor="end" data-bg-id="ITEM_1_TEXT_BG" style="font-size: 26px; font-family: Inter, Segoe UI, Kalam, Roboto, Helvetica, Arial, sans-serif; font-weight: 400;" data-final-font-size="26">
      <tspan x="445.0" dy="32.84px">Messages from managers or</tspan>
      <tspan x="445.0" dy="29.90px">regulators signal higher risk</tspan>
    </text>
  </g>
  <g transform="translate(0, 0)">
    <!-- PCB Trace Line -->
    <path d="M 752 540 L 660 540 L 660 540 L 540 540" fill="none" stroke="var(--accent-2)" stroke-width="6" stroke-linejoin="bevel" opacity="0.8"/>
    <path d="M 752 540 L 660 540 L 660 540 L 540 540" fill="none" stroke="var(--accent-2)" stroke-width="2" filter="url(#svgb08f7c57-neon-glow)"/>
    <!-- Terminal Node (Icon Holder) -->
    <circle cx="510.0" cy="540" r="53" fill="none" stroke="var(--accent-2)" stroke-width="2" opacity="0.4"/>
    <circle cx="510.0" cy="540" r="45" fill="var(--panel)" stroke="var(--accent-2)" stroke-width="4" filter="url(#svgb08f7c57-neon-glow)"/>
    <!-- Node Data Pins -->
    <line x1="510.0" y1="480" x2="510.0" y2="495" stroke="var(--accent-2)" stroke-width="3" opacity="0.6"/>
    <line x1="510.0" y1="585" x2="510.0" y2="600" stroke="var(--accent-2)" stroke-width="3" opacity="0.6"/>
    <circle id="ITEM_2_PAD" cx="510.00" cy="540.00" r="40.00" fill="var(--icon-pad-bg)" stroke="var(--primary-text)" stroke-width="2" opacity="0.9"/>
    <circle id="ITEM_2_PAD_INNER" cx="510.00" cy="540.00" r="31.20" fill="var(--accent-3)" fill-opacity="0.22"/>
    <g id="ITEM_2_ICON" transform="translate(485.0, 515)" data-icon-size="50" stroke-dasharray="6 4">
      <g transform="translate(-10.65714285714286,-20.685714285714287) scale(2.2285714285714286)">
        <path d="M2 14C2 12.3431 3.34315 11 5 11H27C28.6569 11 30 12.3431 30 14V25.25C30 26.9069 28.6569 28.25 27 28.25H5C3.34315 28.25 2 26.9069 2 25.25V14Z" fill="#CDC4D6"/>
        <path d="M4 13.5C4 13.2239 4.22386 13 4.5 13H5.5C5.77614 13 6 13.2239 6 13.5V14C6 14.2761 5.77614 14.5 5.5 14.5H4.5C4.22386 14.5 4 14.2761 4 14V13.5ZM4 17.5C4 17.2239 4.22386 17 4.5 17H5.5C5.77614 17 6 17.2239 6 17.5V18.5C6 18.7761 5.77614 19 5.5 19H4.5C4.22386 19 4 18.7761 4 18.5V17.5ZM6.5 20C6.22386 20 6 20.2239 6 20.5V21.5C6 21.7761 6.22386 22 6.5 22H7.5C7.77614 22 8 21.7761 8 21.5V20.5C8 20.2239 7.77614 20 7.5 20H6.5ZM7.5 23C7.22386 23 7 23.2239 7 23.5V24.5C7 24.7761 7.22386 25 7.5 25H8.5C8.77614 25 9 24.7761 9 24.5V23.5C9 23.2239 8.77614 23 8.5 23H7.5ZM23.5 23C23.2239 23 23 23.2239 23 23.5V24.5C23 24.7761 23.2239 25 23.5 25H24.5C24.7761 25 25 24.7761 25 24.5V23.5C25 23.2239 24.7761 23 24.5 23H23.5ZM10 23.5C10 23.2239 10.2239 23 10.5 23H21.5C21.7761 23 22 23.2239 22 23.5V24.5C22 24.7761 21.7761 25 21.5 25H10.5C10.2239 25 10 24.7761 10 24.5V23.5ZM9 20.5C9 20.2239 9.22386 20 9.5 20H10.5C10.7761 20 11 20.2239 11 20.5V21.5C11 21.7761 10.7761 22 10.5 22H9.5C9.22386 22 9 21.7761 9 21.5V20.5ZM12.5 20C12.2239 20 12 20.2239 12 20.5V21.5C12 21.7761 12.2239 22 12.5 22H13.5C13.7761 22 14 21.7761 14 21.5V20.5C14 20.2239 13.7761 20 13.5 20H12.5ZM15 20.5C15 20.2239 15.2239 20 15.5 20H16.5C16.7761 20 17 20.2239 17 20.5V21.5C17 21.7761 16.7761 22 16.5 22H15.5C15.2239 22 15 21.7761 15 21.5V20.5ZM18.5 20C18.2239 20 18 20.2239 18 20.5V21.5C18 21.7761 18.2239 22 18.5 22H19.5C19.7761 22 20 21.7761 20 21.5V20.5C20 20.2239 19.7761 20 19.5 20H18.5ZM21 20.5C21 20.2239 21.2239 20 21.5 20H22.5C22.7761 20 23 20.2239 23 20.5V21.5C23 21.7761 22.7761 22 22.5 22H21.5C21.2239 22 21 21.7761 21 21.5V20.5ZM24.5 20C24.2239 20 24 20.2239 24 20.5V21.5C24 21.7761 24.2239 22 24.5 22H25.5C25.7761 22 26 21.7761 26 21.5V20.5C26 20.2239 25.7761 20 25.5 20H24.5ZM7.5 17C7.22386 17 7 17.2239 7 17.5V18.5C7 18.7761 7.22386 19 7.5 19H8.5C8.77614 19 9 18.7761 9 18.5V17.5C9 17.2239 8.77614 17 8.5 17H7.5ZM10 17.5C10 17.2239 10.2239 17 10.5 17H11.5C11.7761 17 12 17.2239 12 17.5V18.5C12 18.7761 11.7761 19 11.5 19H10.5C10.2239 19 10 18.7761 10 18.5V17.5ZM13.5 17C13.2239 17 13 17.2239 13 17.5V18.5C13 18.7761 13.2239 19 13.5 19H14.5C14.7761 19 15 18.7761 15 18.5V17.5C15 17.2239 14.7761 17 14.5 17H13.5ZM16 17.5C16 17.2239 16.2239 17 16.5 17H17.5C17.7761 17 18 17.2239 18 17.5V18.5C18 18.7761 17.7761 19 17.5 19H16.5C16.2239 19 16 18.7761 16 18.5V17.5ZM19.5 17C19.2239 17 19 17.2239 19 17.5V18.5C19 18.7761 19.2239 19 19.5 19H20.5C20.7761 19 21 18.7761 21 18.5V17.5C21 17.2239 20.7761 17 20.5 17H19.5ZM22 17.5C22 17.2239 22.2239 17 22.5 17H23.5C23.7761 17 24 17.2239 24 17.5V18.5C24 18.7761 23.7761 19 23.5 19H22.5C22.2239 19 22 18.7761 22 18.5V17.5ZM25.5 17C25.2239 17 25 17.2239 25 17.5V18.5C25 18.7761 25.2239 19 25.5 19H26.5C26.7761 19 27 18.7761 27 18.5V17.5C27 17.2239 26.7761 17 26.5 17H25.5ZM10.5 13C10.2239 13 10 13.2239 10 13.5V14C10 14.2761 10.2239 14.5 10.5 14.5H11.5C11.7761 14.5 12 14.2761 12 14V13.5C12 13.2239 11.7761 13 11.5 13H10.5ZM13 13.5C13 13.2239 13.2239 13 13.5 13H14.5C14.7761 13 15 13.2239 15 13.5V14C15 14.2761 14.7761 14.5 14.5 14.5H13.5C13.2239 14.5 13 14.2761 13 14V13.5ZM16.5 13C16.2239 13 16 13.2239 16 13.5V14C16 14.2761 16.2239 14.5 16.5 14.5H17.5C17.7761 14.5 18 14.2761 18 14V13.5C18 13.2239 17.7761 13 17.5 13H16.5ZM19 13.5C19 13.2239 19.2239 13 19.5 13H20.5C20.7761 13 21 13.2239 21 13.5V14C21 14.2761 20.7761 14.5 20.5 14.5H19.5C19.2239 14.5 19 14.2761 19 14V13.5ZM22.5 13C22.2239 13 22 13.2239 22 13.5V14C22 14.2761 22.2239 14.5 22.5 14.5H23.5C23.7761 14.5 24 14.2761 24 14V13.5C24 13.2239 23.7761 13 23.5 13H22.5ZM25 13.5C25 13.2239 25.2239 13 25.5 13H26.5C26.7761 13 27 13.2239 27 13.5V14C27 14.2761 26.7761 14.5 26.5 14.5H25.5C25.2239 14.5 25 14.2761 25 14V13.5ZM2 27V25C2 26.6569 3.34315 28 5 28H27C28.6569 28 30 26.6569 30 25V27C30 28.6569 28.6569 30 27 30H5C3.34315 30 2 28.6569 2 27Z" fill="#998EA4"/>
      </g>
    </g>
    <rect id="ITEM_2_HEAD_FRAME" x="125.0" y="490" width="320" height="40" fill="none"/>
    <rect id="ITEM_2_TEXT_BG" x="47" y="476" width="416" height="222" rx="22" fill="var(--panel)" fill-opacity="0.94" stroke="var(--accent-2)" stroke-width="2"/>
    <text id="ITEM_2_HEAD" x="445.0" y="490.0" font-weight="bold" font-size="24" fill="var(--accent-3)" text-anchor="end" data-bg-id="ITEM_2_TEXT_BG" fill-opacity="1.0" stroke="none" style="font-size: 30px; font-family: Inter, Segoe UI, Kalam, Roboto, Helvetica, Arial, sans-serif; font-weight: 700; letter-spacing:-0.4px;" data-final-font-size="30">
      <tspan x="445.0" dy="28.25px">Action Keywords</tspan>
    </text>
    <rect id="ITEM_2_BODY_FRAME" x="65" y="560" width="380" height="120" fill="none"/>
    <text id="ITEM_2_BODY" x="445.0" y="560.0" font-size="16" fill="var(--primary-text)" text-anchor="end" data-bg-id="ITEM_2_TEXT_BG" style="font-size: 26px; font-family: Inter, Segoe UI, Kalam, Roboto, Helvetica, Arial, sans-serif; font-weight: 400;" data-final-font-size="26">
      <tspan x="445.0" dy="32.84px">Phrases like 'Please approve'</tspan>
      <tspan x="445.0" dy="29.90px">demand immediate focus</tspan>
    </text>
  </g>
  <g transform="translate(0, 0)">
    <!-- PCB Trace Line -->
    <path d="M 752 606 L 660 606 L 540 740 L 540 790 L 540 790" fill="none" stroke="var(--accent-3)" stroke-width="6" stroke-linejoin="bevel" opacity="0.8"/>
    <path d="M 752 606 L 660 606 L 540 740 L 540 790 L 540 790" fill="none" stroke="var(--accent-3)" stroke-width="2" filter="url(#svgb08f7c57-neon-glow)"/>
    <!-- Terminal Node (Icon Holder) -->
    <circle cx="510.0" cy="790" r="53" fill="none" stroke="var(--accent-3)" stroke-width="2" opacity="0.4"/>
    <circle cx="510.0" cy="790" r="45" fill="var(--panel)" stroke="var(--accent-3)" stroke-width="4" filter="url(#svgb08f7c57-neon-glow)"/>
    <!-- Node Data Pins -->
    <line x1="510.0" y1="730" x2="510.0" y2="745" stroke="var(--accent-3)" stroke-width="3" opacity="0.6"/>
    <line x1="510.0" y1="835" x2="510.0" y2="850" stroke="var(--accent-3)" stroke-width="3" opacity="0.6"/>
    <circle id="ITEM_3_PAD" cx="510.00" cy="790.00" r="40.00" fill="var(--icon-pad-bg)" stroke="var(--primary-text)" stroke-width="2" opacity="0.9"/>
    <circle id="ITEM_3_PAD_INNER" cx="510.00" cy="790.00" r="31.20" fill="var(--accent-4)" fill-opacity="0.22"/>
    <g id="ITEM_3_ICON" transform="translate(485.0, 765)" data-icon-size="50" stroke-dasharray="6 4">
      <g transform="translate(-11.771428571428572,-10.65714285714286) scale(2.2285714285714286)">
        <path d="M23.2066 24.5794C21 25.5 19.05 26 16.5 26C13.7116 26 12 25.5 9.297 24.1399L6.71138 26.3768C5.31666 27.5881 6.10934 30 7.90542 30H24.0901C25.8862 30 26.6889 27.5881 25.2842 26.3768L23.2066 24.5794Z" fill="#D3D3D3"/>
        <path d="M16.5 27C22.299 27 27 22.299 27 16.5C27 10.701 22.299 6 16.5 6C10.701 6 6 10.701 6 16.5C6 22.299 10.701 27 16.5 27Z" fill="#F8312F"/>
        <path d="M16.5 24C20.6421 24 24 20.6422 24 16.5C24 12.3579 20.6421 9 16.5 9C12.3579 9 9 12.3579 9 16.5C9 20.6422 12.3579 24 16.5 24Z" fill="white"/>
        <path d="M4.27314 9.22796C3.53751 6.94375 4.31186 4.34482 6.30578 2.93369C8.2997 1.52256 10.8937 1.75607 12.6263 3.32963C13.1684 3.82708 13.1103 4.73059 12.5198 5.14682L5.91862 9.8066C5.31851 10.2228 4.50544 9.9386 4.27314 9.22796Z" fill="#F9C23C"/>
        <path d="M28.7269 9.22796C29.4625 6.94375 28.6882 4.34482 26.6942 2.93369C24.7003 1.52256 22.1063 1.75607 20.3737 3.32963C19.8316 3.82708 19.8897 4.73059 20.4802 5.14682L27.0814 9.8066C27.6815 10.2228 28.4946 9.9386 28.7269 9.22796Z" fill="#F9C23C"/>
        <path d="M15.1679 16.4454C15.4743 15.9859 16.0952 15.8617 16.5547 16.1681L19.5547 18.1681C20.0142 18.4744 20.1384 19.0953 19.832 19.5548C19.5257 20.0143 18.9048 20.1385 18.4453 19.8322L15.4453 17.8322C14.9858 17.5258 14.8616 16.9049 15.1679 16.4454Z" fill="#F8312F"/>
        <path d="M16 11C16.5523 11 17 11.4477 17 12V17C17 17.5523 16.5523 18 16 18C15.4477 18 15 17.5523 15 17V12C15 11.4477 15.4477 11 16 11Z" fill="#212121"/>
      </g>
    </g>
    <rect id="ITEM_3_HEAD_FRAME" x="125.0" y="740" width="320" height="40" fill="none"/>
    <rect id="ITEM_3_TEXT_BG" x="47" y="726" width="416" height="222" rx="22" fill="var(--panel)" fill-opacity="0.94" stroke="var(--accent-3)" stroke-width="2"/>
    <text id="ITEM_3_HEAD" x="445.0" y="740.0" font-weight="bold" font-size="24" fill="var(--accent-4)" text-anchor="end" data-bg-id="ITEM_3_TEXT_BG" fill-opacity="1.0" stroke="none" style="font-size: 30px; font-family: Inter, Segoe UI, Kalam, Roboto, Helvetica, Arial, sans-serif; font-weight: 700; letter-spacing:-0.4px;" data-final-font-size="30">
      <tspan x="445.0" dy="28.25px">Time Constraints</tspan>
    </text>
    <rect id="ITEM_3_BODY_FRAME" x="65" y="810" width="380" height="120" fill="none"/>
    <text id="ITEM_3_BODY" x="445.0" y="810.0" font-size="16" fill="var(--primary-text)" text-anchor="end" data-bg-id="ITEM_3_TEXT_BG" style="font-size: 26px; font-family: Inter, Segoe UI, Kalam, Roboto, Helvetica, Arial, sans-serif; font-weight: 400;" data-final-font-size="26">
      <tspan x="445.0" dy="26.86px">Deadlines transform simple</tspan>
      <tspan x="445.0" dy="29.90px">information into firm</tspan>
      <tspan x="445.0" dy="29.90px">obligations</tspan>
    </text>
  </g>
  <g transform="translate(0, 0)">
    <!-- PCB Trace Line -->
    <path d="M 1168 474 L 1260 474 L 1380 390 L 1380 390" fill="none" stroke="var(--accent-4)" stroke-width="6" stroke-linejoin="bevel" opacity="0.8"/>
    <path d="M 1168 474 L 1260 474 L 1380 390 L 1380 390" fill="none" stroke="var(--accent-4)" stroke-width="2" filter="url(#svgb08f7c57-neon-glow)"/>
    <!-- Terminal Node (Icon Holder) -->
    <circle cx="1410.0" cy="390" r="53" fill="none" stroke="var(--accent-4)" stroke-width="2" opacity="0.4"/>
    <circle cx="1410.0" cy="390" r="45" fill="var(--panel)" stroke="var(--accent-4)" stroke-width="4" filter="url(#svgb08f7c57-neon-glow)"/>
    <!-- Node Data Pins -->
    <line x1="1410.0" y1="330" x2="1410.0" y2="345" stroke="var(--accent-4)" stroke-width="3" opacity="0.6"/>
    <line x1="1410.0" y1="435" x2="1410.0" y2="450" stroke="var(--accent-4)" stroke-width="3" opacity="0.6"/>
    <circle id="ITEM_4_PAD" cx="1410.00" cy="390.00" r="40.00" fill="var(--icon-pad-bg)" stroke="var(--primary-text)" stroke-width="2" opacity="0.9"/>
    <circle id="ITEM_4_PAD_INNER" cx="1410.00" cy="390.00" r="31.20" fill="var(--accent-5)" fill-opacity="0.22"/>
    <g id="ITEM_4_ICON" transform="translate(1385.0, 365)" data-icon-size="50" stroke-dasharray="6 4">
      <g transform="translate(-6.200000000000003,-6.200000000000003) scale(4.457142857142857)" vector-effect="non-scaling-stroke" stroke-width="2.31" stroke-linecap="round" stroke-linejoin="round" stroke-opacity="1.0">
        <path id="Vector" fill="none" d="M6 11.5a5.5 5.5 0 1 0 0 -11 5.5 5.5 0 0 0 0 11Z" vector-effect="non-scaling-stroke" stroke="#f1f5f9"/>
        <path id="Vector_2" stroke="#f1f5f9" d="M6 11.5a5.5 5.5 0 1 0 0 -11 5.5 5.5 0 0 0 0 11Z" vector-effect="non-scaling-stroke" fill="none"/>
        <path id="Vector_3" stroke="#f1f5f9" d="M13.5 13.5 10 10" vector-effect="non-scaling-stroke" fill="none"/>
      </g>
    </g>
    <rect id="ITEM_4_HEAD_FRAME" x="1475.0" y="340" width="320" height="40" fill="none"/>
    <rect id="ITEM_4_TEXT_BG" x="1457" y="326" width="416" height="222" rx="22" fill="var(--panel)" fill-opacity="0.94" stroke="var(--accent-4)" stroke-width="2"/>
    <text id="ITEM_4_HEAD" x="1475.0" y="340.0" font-weight="bold" font-size="24" fill="var(--accent-5)" text-anchor="start" data-bg-id="ITEM_4_TEXT_BG" fill-opacity="1.0" stroke="none" style="font-size: 30px; font-family: Inter, Segoe UI, Kalam, Roboto, Helvetica, Arial, sans-serif; font-weight: 700; letter-spacing:-0.4px;" data-final-font-size="30">
      <tspan x="1475.0" dy="28.25px">Contextual Background</tspan>
    </text>
    <rect id="ITEM_4_BODY_FRAME" x="1475" y="410" width="380" height="120" fill="none"/>
    <text id="ITEM_4_BODY" x="1475.0" y="410.0" font-size="16" fill="var(--primary-text)" text-anchor="start" data-bg-id="ITEM_4_TEXT_BG" style="font-size: 26px; font-family: Inter, Segoe UI, Kalam, Roboto, Helvetica, Arial, sans-serif; font-weight: 400;" data-final-font-size="26">
      <tspan x="1475.0" dy="32.84px">Long explanations may hide</tspan>
      <tspan x="1475.0" dy="29.90px">a request at the end</tspan>
    </text>
  </g>
  <g transform="translate(0, 0)">
    <!-- PCB Trace Line -->
    <path d="M 1168 606 L 1260 606 L 1380 690 L 1380 690" fill="none" stroke="var(--accent-5)" stroke-width="6" stroke-linejoin="bevel" opacity="0.8"/>
    <path d="M 1168 606 L 1260 606 L 1380 690 L 1380 690" fill="none" stroke="var(--accent-5)" stroke-width="2" filter="url(#svgb08f7c57-neon-glow)"/>
    <!-- Terminal Node (Icon Holder) -->
    <circle cx="1410.0" cy="690" r="53" fill="none" stroke="var(--accent-5)" stroke-width="2" opacity="0.4"/>
    <circle cx="1410.0" cy="690" r="45" fill="var(--panel)" stroke="var(--accent-5)" stroke-width="4" filter="url(#svgb08f7c57-neon-glow)"/>
    <!-- Node Data Pins -->
    <line x1="1410.0" y1="630" x2="1410.0" y2="645" stroke="var(--accent-5)" stroke-width="3" opacity="0.6"/>
    <line x1="1410.0" y1="735" x2="1410.0" y2="750" stroke="var(--accent-5)" stroke-width="3" opacity="0.6"/>
    <circle id="ITEM_5_PAD" cx="1410.00" cy="690.00" r="40.00" fill="var(--icon-pad-bg)" stroke="var(--primary-text)" stroke-width="2" opacity="0.9"/>
    <circle id="ITEM_5_PAD_INNER" cx="1410.00" cy="690.00" r="31.20" fill="var(--accent-6)" fill-opacity="0.22"/>
    <g id="ITEM_5_ICON" transform="translate(1385.0, 665)" data-icon-size="50" stroke-dasharray="6 4">
      <g transform="translate(-9.789380530973457,-10.617699115044255) scale(2.2088495575221243)">
        <path d="M17.6512 22.27H13.7612C12.9712 22.27 12.3212 22.91 12.3312 23.7V27.59C12.3312 28.38 12.9712 29.02 13.7612 29.02H14.0093C14.3418 29.6109 14.9749 30.01 15.7012 30.01C16.4275 30.01 17.0605 29.6109 17.393 29.02H17.6512C18.4412 29.02 19.0812 28.38 19.0812 27.59V23.7C19.0812 22.91 18.4412 22.27 17.6512 22.27Z" fill="#9B9B9B"/>
        <path d="M18.1611 23.13C18.4011 23.13 18.5911 22.95 18.6111 22.72C18.6811 21.86 19.0511 19.77 21.0711 17.53C22.9611 16.04 24.2111 13.78 24.3611 11.22C24.3811 10.98 24.3911 10.82 24.3911 10.72V10.71V10.7C24.3911 10.65 24.3911 10.62 24.3911 10.62C24.3311 5.84 20.4611 2 15.6911 2C10.9211 2 7.05111 5.84 7.00111 10.6C7.00111 10.6 6.99111 10.84 7.03111 11.24C7.19111 13.78 8.43111 16.03 10.3211 17.52C12.3411 19.77 12.7411 21.86 12.8111 22.72C12.8311 22.95 13.0211 23.13 13.2611 23.13H18.1611Z" fill="#FCD53F"/>
        <path d="M15.7011 10.7C17.3211 10.7 18.6411 12.01 18.6611 13.63V13.71C18.6611 13.74 18.6611 13.78 18.6511 13.84C18.6011 14.68 18.1911 15.47 17.5311 15.99L17.4611 16.04L17.4011 16.1C16.3011 17.32 16.0711 20.42 16.0311 22.12H15.3811C15.3311 20.42 15.0911 17.32 13.9911 16.1L13.9311 16.04L13.8611 15.99C13.2011 15.47 12.7911 14.69 12.7411 13.82C12.7411 13.78 12.7311 13.75 12.7311 13.73V13.64C12.7611 12.02 14.0911 10.7 15.7011 10.7ZM15.7011 9.69995C13.5311 9.69995 11.7611 11.45 11.7411 13.62C11.7411 13.62 11.7411 13.73 11.7511 13.91C11.8211 15.07 12.3911 16.09 13.2511 16.77C14.4511 18.11 14.3911 23.13 14.3911 23.13H17.0311C17.0311 23.13 16.9511 18.11 18.1611 16.78C19.0211 16.1 19.5911 15.07 19.6611 13.9C19.6711 13.79 19.6711 13.72 19.6711 13.67C19.6711 13.65 19.6711 13.63 19.6711 13.63C19.6411 11.45 17.8811 9.69995 15.7011 9.69995Z" fill="#FFB02E"/>
        <path d="M19.1674 25.0525C19.4394 25.0049 19.6213 24.7458 19.5737 24.4738C19.526 24.2018 19.2669 24.0199 18.9949 24.0675L12.2549 25.2475C11.9829 25.2951 11.801 25.5542 11.8486 25.8262C11.8963 26.0983 12.1554 26.2801 12.4274 26.2325L19.1674 25.0525ZM19.1178 27.2025C19.3897 27.1546 19.5714 26.8954 19.5236 26.6234C19.4757 26.3514 19.2165 26.1698 18.9445 26.2176L12.2945 27.3876C12.0225 27.4355 11.8408 27.6947 11.8887 27.9667C11.9365 28.2386 12.1958 28.4203 12.4678 28.3725L19.1178 27.2025Z" fill="#D3D3D3"/>
        <path d="M13.7912 5.43997C12.6812 7.35997 13.2412 9.75997 15.0412 10.79C16.8412 11.82 19.1912 11.11 20.3012 9.18997C21.4112 7.26997 20.8512 4.86997 19.0512 3.83997C17.2512 2.80997 14.9012 3.51997 13.7912 5.43997Z" fill="#FFF478"/>
      </g>
    </g>
    <rect id="ITEM_5_HEAD_FRAME" x="1475.0" y="640" width="320" height="40" fill="none"/>
    <rect id="ITEM_5_TEXT_BG" x="1457" y="626" width="416" height="222" rx="22" fill="var(--panel)" fill-opacity="0.94" stroke="var(--accent-5)" stroke-width="2"/>
    <text id="ITEM_5_HEAD" x="1475.0" y="640.0" font-weight="bold" font-size="24" fill="var(--accent-6)" text-anchor="start" data-bg-id="ITEM_5_TEXT_BG" fill-opacity="1.0" stroke="none" style="font-size: 30px; font-family: Inter, Segoe UI, Kalam, Roboto, Helvetica, Arial, sans-serif; font-weight: 700; letter-spacing:-0.4px;" data-final-font-size="30">
      <tspan x="1475.0" dy="28.25px">Decision Language</tspan>
    </text>
    <rect id="ITEM_5_BODY_FRAME" x="1475" y="710" width="380" height="120" fill="none"/>
    <text id="ITEM_5_BODY" x="1475.0" y="710.0" font-size="16" fill="var(--primary-text)" text-anchor="start" data-bg-id="ITEM_5_TEXT_BG" style="font-size: 26px; font-family: Inter, Segoe UI, Kalam, Roboto, Helvetica, Arial, sans-serif; font-weight: 400;" data-final-font-size="26">
      <tspan x="1475.0" dy="26.86px">Phrases requiring judgment</tspan>
      <tspan x="1475.0" dy="29.90px">necessitate a slower</tspan>
      <tspan x="1475.0" dy="29.90px">reading pace</tspan>
    </text>
  </g>
</svg>
