<?xml version='1.0' encoding='utf-8'?>
<svg xmlns="http://www.w3.org/2000/svg" width="1920" height="1080" viewBox="0 0 1920 1080" data-theme="dark">
  <style>
        @font-face {
            font-family: 'Inter';
            src: url('assets/fonts/Inter-Regular.ttf') format('truetype');
            font-weight: 400;
            font-style: normal;
            font-display: swap;
        }
        @font-face {
            font-family: 'Inter';
            src: url('assets/fonts/Inter-Bold.ttf') format('truetype');
            font-weight: 600;
            font-style: normal;
            font-display: swap;
        }
        @font-face {
            font-family: 'Inter';
            src: url('assets/fonts/Inter-Bold.ttf') format('truetype');
            font-weight: 800;
            font-style: normal;
            font-display: swap;
        }
        
:root {
    --background: #0f172a;
    --panel: #1e293b;
    --primary-text: #f1f5f9;
    --muted-text: #94a3b8;
    --inverse-text: #0f172a;
    --border: #334155;
    --shadow-color: #000000;
    --icon-pad-bg: #1e293b;
    --art-glow: #7dd3fc;
    --art-glow-opacity: 0.18;
    --art-sheen: #ffffff;
    --art-sheen-opacity: 0.18;
    --art-shadow: #000000;
    --art-shadow-opacity: 0.28;
    --art-muted-line: #64748b;
    --art-panel-tint: #1e293b;
    --font-family: 'Inter', 'Segoe UI', 'Kalam', Roboto, Helvetica, Arial, sans-serif;
    --radius-xl: 16px;
    --font-family-headline: 'Inter', 'Segoe UI', 'Kalam', Roboto, Helvetica, Arial, sans-serif;
    --font-family-body: 'Inter', 'Segoe UI', 'Kalam', Roboto, Helvetica, Arial, sans-serif;
    --font-heading: 'Inter', 'Segoe UI', 'Kalam', Roboto, Helvetica, Arial, sans-serif;
    --font-body: 'Inter', 'Segoe UI', 'Kalam', Roboto, Helvetica, Arial, sans-serif;
    --font-size-h1: 56px;
    --font-size-h2: 40px;
    --font-size-h3: 28px;
    --font-size-body: 24px;
    --font-size-caption: 18px;
    --secondary-text: var(--muted-text);
    --panel-border: var(--border);
    --font-weight-normal: 400;
    --font-weight-medium: 500;
    --font-weight-semibold: 600;
    --font-weight-bold: 700;
    --spacing-gutter-pct: 0.07;
    --spacing-top-pct: 0.15;
    --spacing-bottom-pct: 0.07;
    --spacing-title-y-pct: 0.055;
    --accent-1: #60a5fa;
    --accent-2: #4ade80;
    --accent-3: #f97316;
    --accent-4: #a78bfa;
    --accent-5: #38bdf8;
    --accent-6: #94a3b8;
}
:root[data-theme="dark"] {
    --background: #0f172a;
    --panel: #1e293b;
    --primary-text: #f1f5f9;
    --muted-text: #94a3b8;
    --inverse-text: #0f172a;
    --border: #334155;
    --shadow-color: #000000;
    --icon-pad-bg: #1e293b;
    --art-glow: #7dd3fc;
    --art-glow-opacity: 0.18;
    --art-sheen: #ffffff;
    --art-sheen-opacity: 0.18;
    --art-shadow: #000000;
    --art-shadow-opacity: 0.28;
    --art-muted-line: #64748b;
    --art-panel-tint: #1e293b;
    --accent-1: #60a5fa;
    --accent-2: #4ade80;
    --accent-3: #f97316;
    --accent-4: #a78bfa;
    --accent-5: #38bdf8;
    --accent-6: #94a3b8;
}
:root[data-theme="light"] {
    --background: #f8fafc;
    --panel: #ffffff;
    --primary-text: #0f172a;
    --muted-text: #64748b;
    --inverse-text: #ffffff;
    --border: #e2e8f0;
    --shadow-color: #000000;
    --icon-pad-bg: #1e293b;
    --art-glow: #0891b2;
    --art-glow-opacity: 0.10;
    --art-sheen: #ffffff;
    --art-sheen-opacity: 0.34;
    --art-shadow: #0f172a;
    --art-shadow-opacity: 0.14;
    --art-muted-line: #94a3b8;
    --art-panel-tint: #f1f5f9;
    --accent-1: #2563eb;
    --accent-2: #16a34a;
    --accent-3: #ea580c;
    --accent-4: #7c3aed;
    --accent-5: #0284c7;
    --accent-6: #475569;
}</style>
  <rect x="0" y="0" width="1.92E+3" height="1.08E+3" fill="#252a34" stroke="none" id="programmatic_background"/>
  <line id="HEADER_DECOR" x1="960.0" x2="1080.0" y1="127.0" y2="127.0" stroke="var(--accent-1)" stroke-width="6" stroke-linecap="round"/>
  <defs>
    <pattern id="svga4fce688-napkin-hatch" patternUnits="userSpaceOnUse" width="12" height="12">
      <path d="M -3 12 L 12 -3 M 0 15 L 15 0" fill="none" stroke="var(--primary-text)" stroke-width="1" stroke-opacity="0.05"/>
    </pattern>
    <filter id="svga4fce688-shadow" x="-30%" y="-30%" width="160%" height="160%">
      <feDropShadow dx="0" dy="3" stdDeviation="6" flood-color="#000000" flood-opacity="0.10"/>
      <feDropShadow dx="0" dy="8" stdDeviation="12" flood-color="#000000" flood-opacity="0.16"/>
    </filter>
    <radialGradient id="svga4fce688-universal-edge-vignette" cx="50%" cy="50%" r="72%">
      <stop offset="0%" stop-color="var(--background)" stop-opacity="0"/>
      <stop offset="72%" stop-color="var(--background)" stop-opacity="0.12"/>
      <stop offset="100%" stop-color="var(--primary-text)" stop-opacity="0.08"/>
    </radialGradient>
    <linearGradient id="svga4fce688-universal-surface-sheen" x1="0%" y1="0%" x2="100%" y2="100%">
      <stop offset="0%" stop-color="var(--art-sheen)" stop-opacity="var(--art-sheen-opacity)"/>
      <stop offset="46%" stop-color="var(--art-sheen)" stop-opacity="0.035"/>
      <stop offset="100%" stop-color="var(--art-panel-tint)" stop-opacity="0.14"/>
    </linearGradient>
    <radialGradient id="svga4fce688-universal-icon-aura" cx="50%" cy="42%" r="64%">
      <stop offset="0%" stop-color="var(--art-glow)" stop-opacity="var(--art-glow-opacity)"/>
      <stop offset="100%" stop-color="var(--background)" stop-opacity="0"/>
    </radialGradient>
    <filter id="svga4fce688-text-glow" x="-20%" y="-20%" width="140%" height="140%">
      <feDropShadow dx="0" dy="0" stdDeviation="2" flood-color="#000000" flood-opacity="0.4"/>
    </filter>
    <marker id="svga4fce688-arrowhead" markerWidth="10" markerHeight="7" refX="9" refY="3.5" orient="auto" markerUnits="strokeWidth">
      <polygon points="0 0, 10 3.5, 0 7" fill="var(--muted-text)" opacity="0.6"/>
    </marker>
  </defs>
  <rect width="100%" height="100%" fill="var(--background)" id="CANVAS_BG"/>
  <rect width="100%" height="100%" fill="url(#svga4fce688-napkin-hatch)"/>
  <rect id="UNIVERSAL_EDGE_VIGNETTE" width="100%" height="100%" fill="url(#svga4fce688-universal-edge-vignette)" opacity="0.62"/>
  <text id="TITLE" x="960.0" y="59" text-anchor="middle" font-size="60" font-weight="800" fill="#f1f5f9" style="font-size: 60px; font-family: Inter, Segoe UI, Kalam, Roboto, Helvetica, Arial, sans-serif; font-weight: 700; letter-spacing:-1.2px;" data-final-font-size="60">
    <tspan x="960.0" dy="68.00px">When Large Rereads Are Justified</tspan>
  </text>
  <rect id="TITLE_FRAME" x="134" y="54" width="1652" height="100" fill="none"/>
  <rect x="150" y="150" width="1620" height="850" rx="40" fill="var(--panel)" fill-opacity="0.18" stroke="var(--muted-text)" stroke-width="2" opacity="0.90"/>
  <line x1="360" y1="212.0" x2="360" y2="938.0" stroke="var(--muted-text)" stroke-width="18" stroke-linecap="round" opacity="0.18"/>
  <line x1="360" y1="212.0" x2="360" y2="938.0" stroke="var(--border)" stroke-width="3" stroke-linecap="round" opacity="0.72"/>
  <g id="DIAGRAM_MAIN">
    <g filter="url(#svga4fce688-shadow)">
      <line x1="404.0" y1="240.0" x2="420.0" y2="240.0" stroke="var(--accent-1)" stroke-width="5" opacity="0.76" stroke-linecap="round"/>
      <rect id="ITEM_1_BG" x="420.0" y="174.0" width="1085" height="152" rx="22" fill="var(--panel)" fill-opacity="0.97" stroke="var(--accent-1)" stroke-width="2.5"/>
      <rect x="420.0" y="174.0" width="1085" height="152" rx="16" fill="url(#svga4fce688-universal-surface-sheen)" opacity="0.88"/>
      <rect x="420.0" y="174.0" width="14" height="132" rx="7" fill="var(--accent-1)" fill-opacity="0.90"/>
      <circle id="ITEM_1_PAD" cx="360" cy="240.0" r="46" fill="var(--icon-pad-bg)" opacity="0.95" fill-opacity="0.9" stroke-width="2" stroke="var(--primary-text)"/>
      <circle id="ITEM_1_PAD_INNER" cx="360" cy="240.0" r="35.88" fill="var(--accent-4)" fill-opacity="0.22"/>
      <circle cx="360" cy="240.0" r="38" fill="none" stroke="var(--accent-1)" stroke-width="3" stroke-dasharray="6 4"/>
      <g id="ITEM_1_ICON" transform="translate(324, 204.0)" data-icon-size="72" stroke-dasharray="6 4">
        <g transform="translate(-5.142857142857143,-5.142857142857143) scale(2.5714285714285716)">
          <path d="M2 6C2 3.79086 3.79086 2 6 2H26C28.2091 2 30 3.79086 30 6V26C30 28.2091 28.2091 30 26 30H6C3.79086 30 2 28.2091 2 26V6Z" fill="#D3D3D3"/>
          <path d="M14.8535 17.1464L8 20L5.43933 26.5607C5.71078 26.8321 6.08578 27 6.49999 27H14.5C14.7761 27 15 26.7761 15 26.5V17.5C15 17.3619 14.944 17.2369 14.8535 17.1464Z" fill="#83CBFF"/>
          <path d="M17.5 27H25.5C26.3284 27 27 26.3284 27 25.5V17.5C27 17.2238 26.7761 17 26.5 17H17.5C17.2238 17 17 17.2238 17 17.5V26.5C17 26.7761 17.2238 27 17.5 27Z" fill="#83CBFF"/>
          <path d="M27 14.5V6.49999C27 6.08578 26.8321 5.71078 26.5606 5.43933L19 8L17.1464 14.8535C17.2369 14.944 17.3619 15 17.5 15H26.5C26.7761 15 27 14.7761 27 14.5Z" fill="#83CBFF"/>
          <path d="M5 6.5C5 5.67157 5.67157 5 6.5 5H14.5C14.7761 5 15 5.22386 15 5.5V14.5C15 14.7761 14.7761 15 14.5 15H5.5C5.22386 15 5 14.7761 5 14.5V6.5Z" fill="#00A6ED"/>
          <path d="M5 17.5C5 17.2239 5.22386 17 5.5 17H14.5C14.6381 17 14.7631 17.056 14.8536 17.1464L5.43934 26.5607C5.16789 26.2892 5 25.9142 5 25.5V17.5Z" fill="#00A6ED"/>
          <path d="M26.5607 5.43934C26.2892 5.16789 25.9142 5 25.5 5H17.5C17.2239 5 17 5.22386 17 5.5V14.5C17 14.6381 17.056 14.7631 17.1464 14.8536L26.5607 5.43934Z" fill="#00A6ED"/>
        </g>
      </g>
      <text id="ITEM_1_HEAD" x="500.0" y="192.0" text-anchor="start" font-weight="800" font-size="30" fill="var(--accent-4)" data-bg-id="ITEM_1_BG" fill-opacity="1.0" stroke="none" style="font-size: 30px; font-family: Inter, Segoe UI, Kalam, Roboto, Helvetica, Arial, sans-serif; font-weight: 700; letter-spacing:-0.4px;" data-final-font-size="30">
        <tspan x="500.0" dy="27.13px">Total Confusion</tspan>
      </text>
      <rect id="ITEM_1_HEAD_FRAME" x="500" y="192.0" width="760" height="32" fill="none"/>
      <text id="ITEM_1_BODY" x="500.0" y="230.0" text-anchor="start" font-size="24" fill="var(--primary-text)" data-bg-id="ITEM_1_BG" style="font-size: 26px; font-family: Inter, Segoe UI, Kalam, Roboto, Helvetica, Arial, sans-serif; font-weight: 400;" data-final-font-size="26">
        <tspan x="500.0" dy="31.81px">Occurs when the last clear point is unknown</tspan>
      </text>
      <rect id="ITEM_1_BODY_FRAME" x="500" y="230.0" width="860" height="72" fill="none"/>
      <text x="1460" y="216.0" text-anchor="end" font-size="18" font-weight="800" fill="var(--accent-1)" opacity="0.70">01</text>
    </g>
    <g filter="url(#svga4fce688-shadow)">
      <line x1="404.0" y1="407.5" x2="420.0" y2="407.5" stroke="var(--accent-2)" stroke-width="5" opacity="0.76" stroke-linecap="round"/>
      <rect id="ITEM_2_BG" x="420.0" y="341.5" width="1085" height="152" rx="22" fill="var(--panel)" fill-opacity="0.97" stroke="var(--accent-2)" stroke-width="2.5"/>
      <rect x="420.0" y="341.5" width="1085" height="152" rx="16" fill="url(#svga4fce688-universal-surface-sheen)" opacity="0.88"/>
      <rect x="420.0" y="341.5" width="14" height="132" rx="7" fill="var(--accent-2)" fill-opacity="0.90"/>
      <circle id="ITEM_2_PAD" cx="360" cy="407.5" r="46" fill="var(--icon-pad-bg)" opacity="0.95" fill-opacity="0.9" stroke-width="2" stroke="var(--primary-text)"/>
      <circle id="ITEM_2_PAD_INNER" cx="360" cy="407.5" r="35.88" fill="var(--accent-5)" fill-opacity="0.22"/>
      <circle cx="360" cy="407.5" r="38" fill="none" stroke="var(--accent-2)" stroke-width="3" stroke-dasharray="6 4"/>
      <g id="ITEM_2_ICON" transform="translate(324, 371.5)" data-icon-size="72" stroke-dasharray="6 4">
        <g transform="translate(-5.142857142857143,-5.142857142857146) scale(0.32142857142857145)" vector-effect="non-scaling-stroke" stroke-width="2.58" stroke-linecap="round" stroke-linejoin="round" stroke-opacity="1.0">
          <line x1="64" y1="56" x2="64" y2="200" fill="none" stroke="#f1f5f9" vector-effect="non-scaling-stroke"/>
          <line x1="192" y1="56" x2="192" y2="200" fill="none" stroke="#f1f5f9" vector-effect="non-scaling-stroke"/>
          <path d="M24,115.35A64,64,0,0,0,64,56a64,64,0,0,0,128,0,64,64,0,0,0,40,59.35" fill="none" stroke="#f1f5f9" vector-effect="non-scaling-stroke"/>
          <line x1="152" y1="115.35" x2="152" y2="168" fill="none" stroke="#f1f5f9" vector-effect="non-scaling-stroke"/>
          <line x1="104" y1="115.35" x2="104" y2="168" fill="none" stroke="#f1f5f9" vector-effect="non-scaling-stroke"/>
          <line x1="24" y1="168" x2="232" y2="168" fill="none" stroke="#f1f5f9" vector-effect="non-scaling-stroke"/>
        </g>
      </g>
      <text id="ITEM_2_HEAD" x="500.0" y="359.5" text-anchor="start" font-weight="800" font-size="30" fill="var(--accent-5)" data-bg-id="ITEM_2_BG" fill-opacity="1.0" stroke="none" style="font-size: 30px; font-family: Inter, Segoe UI, Kalam, Roboto, Helvetica, Arial, sans-serif; font-weight: 700; letter-spacing:-0.4px;" data-final-font-size="30">
        <tspan x="500.0" dy="27.13px">Complex Dependencies</tspan>
      </text>
      <rect id="ITEM_2_HEAD_FRAME" x="500" y="359.5" width="760" height="32" fill="none"/>
      <text id="ITEM_2_BODY" x="500.0" y="397.5" text-anchor="start" font-size="24" fill="var(--primary-text)" data-bg-id="ITEM_2_BG" style="font-size: 26px; font-family: Inter, Segoe UI, Kalam, Roboto, Helvetica, Arial, sans-serif; font-weight: 400;" data-final-font-size="26">
        <tspan x="500.0" dy="31.81px">Multiple paragraphs rely on a single missed fact</tspan>
      </text>
      <rect id="ITEM_2_BODY_FRAME" x="500" y="397.5" width="860" height="72" fill="none"/>
      <text x="1460" y="383.5" text-anchor="end" font-size="18" font-weight="800" fill="var(--accent-2)" opacity="0.70">02</text>
    </g>
    <g filter="url(#svga4fce688-shadow)">
      <line x1="404.0" y1="575.0" x2="420.0" y2="575.0" stroke="var(--accent-3)" stroke-width="5" opacity="0.76" stroke-linecap="round"/>
      <rect id="ITEM_3_BG" x="420.0" y="509.0" width="1085" height="152" rx="22" fill="var(--panel)" fill-opacity="0.97" stroke="var(--accent-3)" stroke-width="2.5"/>
      <rect x="420.0" y="509.0" width="1085" height="152" rx="16" fill="url(#svga4fce688-universal-surface-sheen)" opacity="0.88"/>
      <rect x="420.0" y="509.0" width="14" height="132" rx="7" fill="var(--accent-3)" fill-opacity="0.90"/>
      <circle id="ITEM_3_PAD" cx="360" cy="575.0" r="46" fill="var(--icon-pad-bg)" opacity="0.95" fill-opacity="0.9" stroke-width="2" stroke="var(--primary-text)"/>
      <circle id="ITEM_3_PAD_INNER" cx="360" cy="575.0" r="35.88" fill="var(--accent-6)" fill-opacity="0.22"/>
      <circle cx="360" cy="575.0" r="38" fill="none" stroke="var(--accent-3)" stroke-width="3" stroke-dasharray="6 4"/>
      <g id="ITEM_3_ICON" transform="translate(324, 539.0)" data-icon-size="72" stroke-dasharray="6 4">
        <g transform="translate(-5.142857142857143,-5.142857142857143) scale(2.5714285714285716)">
          <path d="M23.6231 21.4249L24.6179 22.4209C25.1551 22.9587 26.0206 22.9587 26.5578 22.4209L29.7015 19.2737C30.0995 18.8753 30.0995 18.2379 29.7015 17.8395L23.8718 12.0033C23.6927 11.824 23.6927 11.5452 23.8718 11.3659C23.9812 11.2564 24.1304 11.2165 24.2697 11.2464C25.2148 11.4058 26.2196 11.1269 26.9458 10.3999C28.1496 9.19476 28.1396 7.23276 26.916 6.03762L26.0604 5.17115L25.6724 5.30063C24.6975 5.0118 23.6032 5.22095 22.7973 5.91811C21.9617 6.64515 21.6234 7.71081 21.7826 8.70675C21.8025 8.85614 21.7627 8.99557 21.6533 9.10513L21.6334 9.12505C21.4543 9.30432 21.1758 9.30432 20.9967 9.12505L15.1669 3.29878C14.769 2.90041 14.1323 2.90041 13.7343 3.29878L10.6205 6.41608C10.5409 6.49576 10.4812 6.58539 10.4215 6.67503L10.2126 6.46588L9.47642 7.20288L10.6205 8.34821L10.6404 8.36813C10.9189 8.64699 11.297 8.79638 11.685 8.77647C12.5803 8.73663 13.4956 9.08521 14.1422 9.83216C15.1271 10.9675 15.1371 12.6905 14.1422 13.8359C12.9683 15.1903 10.9189 15.2501 9.66544 14.0052C9.01879 13.3578 8.72034 12.5013 8.78003 11.6547C8.79993 11.2663 8.66065 10.8879 8.38209 10.609C8.37214 10.5891 8.3622 10.5791 8.35225 10.5692L7.3773 9.59314L6.94952 10.0314L7.13854 10.2206C6.87988 10.2704 6.64112 10.3999 6.44215 10.599L3.29845 13.7462C2.90052 14.1446 2.90052 14.782 3.29845 15.1804L9.13817 21.0266C9.31724 21.2058 9.31724 21.4847 9.13817 21.664C9.02874 21.7735 8.87951 21.8134 8.74024 21.7835C7.73545 21.6142 6.66102 21.9428 5.92483 22.7794C4.92999 23.9148 4.92004 25.6477 5.91489 26.7931C7.0888 28.1475 9.13817 28.2073 10.3917 26.9524C11.108 26.2353 11.3965 25.2394 11.2472 24.3132C11.2273 24.1638 11.2671 24.0243 11.3766 23.9148L11.3965 23.8949C11.5755 23.7156 11.8541 23.7156 12.0332 23.8949L17.8331 29.7012C18.231 30.0996 18.8677 30.0996 19.2657 29.7012L22.3795 26.5839C22.9167 26.0461 22.9167 25.1796 22.3795 24.6418L22.3596 24.6219L21.4742 23.7355L21.0862 24.1239L21.1957 24.2335C20.3401 24.2335 19.4845 23.8849 18.8677 23.1778C17.8828 22.0424 17.8729 20.3194 18.8677 19.1741C20.0416 17.8196 22.091 17.7599 23.3445 19.0048C23.8618 19.5227 24.1603 20.19 24.22 20.8672L24.2001 20.8473L23.6231 21.4249Z" fill="#D3D3D3"/>
          <path d="M21.7702 4.90923C20.9348 5.63653 20.5967 6.70258 20.7558 7.69889C20.7757 7.84834 20.7359 7.98782 20.6265 8.09742L20.6066 8.11734C20.4276 8.29668 20.1492 8.29668 19.9702 8.11734L14.1525 2.29889C13.7547 1.90037 13.1182 1.90037 12.7204 2.29889L9.60773 5.41734C9.07072 5.95535 9.07072 6.82214 9.60773 7.36015L9.63757 7.38007C9.90608 7.64908 10.284 7.79852 10.6718 7.7786C11.5669 7.73875 12.4818 8.08745 13.1282 8.83469C14.1127 9.97048 14.1227 11.6941 13.1282 12.8399C11.9547 14.1948 9.90608 14.2546 8.65304 13.0092C8.01657 12.3517 7.71823 11.4948 7.76796 10.648C7.79779 10.2594 7.64862 9.87085 7.37017 9.60185C6.83315 9.06384 5.96796 9.06384 5.43094 9.60185L2.29834 12.7402C1.90055 13.1387 1.90055 13.7764 2.29834 14.1749L8.13591 20.0232C8.31492 20.2026 8.31492 20.4815 8.13591 20.6609C8.02652 20.7705 7.87735 20.8103 7.73812 20.7804C6.7337 20.6111 5.65967 20.9399 4.92376 21.7768C3.92928 22.9125 3.91934 24.6461 4.91381 25.7919C6.08729 27.1469 8.13591 27.2066 9.38895 25.9513C10.105 25.2339 10.3934 24.2376 10.2442 23.3111C10.2243 23.1616 10.2641 23.0221 10.3735 22.9125L10.3934 22.8926C10.5724 22.7133 10.8508 22.7133 11.0298 22.8926L16.8276 28.7011C17.2254 29.0996 17.8619 29.0996 18.2597 28.7011L21.3724 25.5827C21.9094 25.0447 21.9094 24.1779 21.3724 23.6399L21.3525 23.6199C21.084 23.3509 20.7061 23.2015 20.3182 23.2214C19.4232 23.2613 18.5083 22.9125 17.8619 22.1653C16.8773 21.0295 16.8674 19.3059 17.8619 18.1601C19.0354 16.8052 21.084 16.7454 22.337 17.9908C22.9834 18.6384 23.2818 19.4952 23.2221 20.3421C23.2022 20.7306 23.3414 21.1092 23.6199 21.3882C24.1569 21.9262 25.0221 21.9262 25.5591 21.3882L28.7017 18.2399C29.0994 17.8413 29.0994 17.2037 28.7017 16.8052L22.874 10.9668C22.695 10.7875 22.695 10.5085 22.874 10.3292C22.9834 10.2196 23.1326 10.1797 23.2718 10.2096C24.2166 10.369 25.221 10.09 25.947 9.36273C27.1901 8.11734 27.1403 6.05498 25.7779 4.87934C24.6243 3.92288 22.9039 3.92288 21.7702 4.90923Z" fill="#C3EF3C"/>
        </g>
      </g>
      <text id="ITEM_3_HEAD" x="500.0" y="527.0" text-anchor="start" font-weight="800" font-size="30" fill="var(--accent-6)" data-bg-id="ITEM_3_BG" fill-opacity="1.0" stroke="none" style="font-size: 30px; font-family: Inter, Segoe UI, Kalam, Roboto, Helvetica, Arial, sans-serif; font-weight: 700; letter-spacing:-0.4px;" data-final-font-size="30">
        <tspan x="500.0" dy="27.13px">Argument Breakdown</tspan>
      </text>
      <rect id="ITEM_3_HEAD_FRAME" x="500" y="527.0" width="760" height="32" fill="none"/>
      <text id="ITEM_3_BODY" x="500.0" y="565.0" text-anchor="start" font-size="24" fill="var(--primary-text)" data-bg-id="ITEM_3_BG" style="font-size: 26px; font-family: Inter, Segoe UI, Kalam, Roboto, Helvetica, Arial, sans-serif; font-weight: 400;" data-final-font-size="26">
        <tspan x="500.0" dy="31.81px">The text contains complex steps with linked logic</tspan>
      </text>
      <rect id="ITEM_3_BODY_FRAME" x="500" y="565.0" width="860" height="72" fill="none"/>
      <text x="1460" y="551.0" text-anchor="end" font-size="18" font-weight="800" fill="var(--accent-3)" opacity="0.70">03</text>
    </g>
    <g filter="url(#svga4fce688-shadow)">
      <line x1="404.0" y1="742.5" x2="420.0" y2="742.5" stroke="var(--accent-4)" stroke-width="5" opacity="0.76" stroke-linecap="round"/>
      <rect id="ITEM_4_BG" x="420.0" y="676.5" width="1085" height="152" rx="22" fill="var(--panel)" fill-opacity="0.97" stroke="var(--accent-4)" stroke-width="2.5"/>
      <rect x="420.0" y="676.5" width="1085" height="152" rx="16" fill="url(#svga4fce688-universal-surface-sheen)" opacity="0.88"/>
      <rect x="420.0" y="676.5" width="14" height="132" rx="7" fill="var(--accent-4)" fill-opacity="0.90"/>
      <circle id="ITEM_4_PAD" cx="360" cy="742.5" r="46" fill="var(--icon-pad-bg)" opacity="0.95" fill-opacity="0.9" stroke-width="2" stroke="var(--primary-text)"/>
      <circle id="ITEM_4_PAD_INNER" cx="360" cy="742.5" r="35.88" fill="var(--accent-1)" fill-opacity="0.22"/>
      <circle cx="360" cy="742.5" r="38" fill="none" stroke="var(--accent-4)" stroke-width="3" stroke-dasharray="6 4"/>
      <g id="ITEM_4_ICON" transform="translate(324, 706.5)" data-icon-size="72" stroke-dasharray="6 4">
        <g transform="translate(-5.142857142857143,-5.142857142857143) scale(2.5714285714285716)">
          <path d="M15.5 28C21.8513 28 27 22.8513 27 16.5C27 10.1487 21.8513 5 15.5 5C9.14873 5 4 10.1487 4 16.5C4 22.8513 9.14873 28 15.5 28Z" fill="#F4F4F4"/>
          <path d="M25.7663 7.73298C26.1431 7.9044 26.5609 8 27 8C28.65 8 30 6.65 30 5C30 3.35 28.65 2 27 2C25.35 2 24 3.35 24 5C24 5.43909 24.0956 5.85693 24.267 6.23373C21.9083 4.21752 18.8463 3 15.5 3C8.04416 3 2 9.04416 2 16.5C2 23.9558 8.04416 30 15.5 30C22.9558 30 29 23.9558 29 16.5C29 13.1537 27.7825 10.0917 25.7663 7.73298ZM25.39 4.99C25.39 4.1 26.11 3.38 27 3.38C27.88 3.38 28.61 4.1 28.61 4.99C28.61 5.88 27.89 6.6 27 6.6C26.11 6.6 25.39 5.88 25.39 4.99ZM26 16.5C26 22.299 21.299 27 15.5 27C9.70101 27 5 22.299 5 16.5C5 10.701 9.70101 6 15.5 6C21.299 6 26 10.701 26 16.5Z" fill="#F9C23C"/>
          <path d="M25.35 7.99994L23.99 6.63994L25.35 5.27994C25.72 4.90994 26.33 4.90994 26.71 5.27994C27.08 5.64994 27.08 6.25994 26.71 6.63994L25.35 7.99994Z" fill="#FFB02E"/>
          <path d="M13.2234 17.724L11.4099 20.21C11.2299 20.45 11.5299 20.75 11.7799 20.58L14.2735 18.7609L15.2099 24.7499C15.2599 25.0799 15.7399 25.0799 15.7899 24.7499L16.8663 17.8663L23.7499 16.7899C24.0799 16.7399 24.0799 16.2599 23.7499 16.2099L17.7609 15.2735L19.5799 12.78C19.7599 12.54 19.4599 12.24 19.2099 12.41L16.724 14.2234L15.7899 8.24994C15.7399 7.91994 15.2599 7.91994 15.2099 8.24994L14.1336 15.1336L7.24994 16.2099C6.91994 16.2599 6.91994 16.7399 7.24994 16.7899L13.2234 17.724Z" fill="#9B9B9B"/>
          <path d="M17.3382 15L20.9393 21.3271C21.1631 21.7255 20.7252 22.1629 20.3261 21.9394L14 18.3336L17.3382 15Z" fill="#9B9B9B"/>
          <path d="M13.6756 18L10.0605 11.672C9.83756 11.2741 10.2737 10.8373 10.6711 11.0606L17 14.671L13.6756 18Z" fill="#E5336D"/>
          <path d="M15.5 19C16.8807 19 18 17.8807 18 16.5C18 15.1193 16.8807 14 15.5 14C14.1193 14 13 15.1193 13 16.5C13 17.8807 14.1193 19 15.5 19Z" fill="#D3D3D3"/>
        </g>
      </g>
      <text id="ITEM_4_HEAD" x="500.0" y="694.5" text-anchor="start" font-weight="800" font-size="30" fill="var(--accent-1)" data-bg-id="ITEM_4_BG" fill-opacity="1.0" stroke="none" style="font-size: 30px; font-family: Inter, Segoe UI, Kalam, Roboto, Helvetica, Arial, sans-serif; font-weight: 700; letter-spacing:-0.4px;" data-final-font-size="30">
        <tspan x="500.0" dy="27.13px">Fundamental Misunderst and ing</tspan>
      </text>
      <rect id="ITEM_4_HEAD_FRAME" x="500" y="694.5" width="760" height="32" fill="none"/>
      <text id="ITEM_4_BODY" x="500.0" y="732.5" text-anchor="start" font-size="24" fill="var(--primary-text)" data-bg-id="ITEM_4_BG" style="font-size: 26px; font-family: Inter, Segoe UI, Kalam, Roboto, Helvetica, Arial, sans-serif; font-weight: 400;" data-final-font-size="26">
        <tspan x="500.0" dy="31.81px">A single error changes the meaning of everything</tspan>
      </text>
      <rect id="ITEM_4_BODY_FRAME" x="500" y="732.5" width="860" height="72" fill="none"/>
      <text x="1460" y="718.5" text-anchor="end" font-size="18" font-weight="800" fill="var(--accent-4)" opacity="0.70">04</text>
    </g>
    <g filter="url(#svga4fce688-shadow)">
      <line x1="404.0" y1="910.0" x2="420.0" y2="910.0" stroke="var(--accent-5)" stroke-width="5" opacity="0.76" stroke-linecap="round"/>
      <rect id="ITEM_5_BG" x="420.0" y="844.0" width="1085" height="152" rx="22" fill="var(--panel)" fill-opacity="0.97" stroke="var(--accent-5)" stroke-width="2.5"/>
      <rect x="420.0" y="844.0" width="1085" height="152" rx="16" fill="url(#svga4fce688-universal-surface-sheen)" opacity="0.88"/>
      <rect x="420.0" y="844.0" width="14" height="132" rx="7" fill="var(--accent-5)" fill-opacity="0.90"/>
      <circle id="ITEM_5_PAD" cx="360" cy="910.0" r="46" fill="var(--icon-pad-bg)" opacity="0.95" fill-opacity="0.9" stroke-width="2" stroke="var(--primary-text)"/>
      <circle id="ITEM_5_PAD_INNER" cx="360" cy="910.0" r="35.88" fill="var(--accent-2)" fill-opacity="0.22"/>
      <circle cx="360" cy="910.0" r="38" fill="none" stroke="var(--accent-5)" stroke-width="3" stroke-dasharray="6 4"/>
      <g id="ITEM_5_ICON" transform="translate(324, 874.0)" data-icon-size="72" stroke-dasharray="6 4">
        <g transform="translate(-5.142857142857143,-5.142857142857143) scale(2.5714285714285716)">
          <path d="M19.949 11.75H23.969C24.389 11.75 24.719 11.41 24.719 11C24.719 10.59 24.379 10.25 23.969 10.25H19.949C19.569 10.25 19.219 10.07 18.999 9.76999L16.629 6.51999C16.4584 6.2948 16.1854 6.19068 15.9243 6.22353C15.6985 6.22945 15.4794 6.33695 15.339 6.52999L12.969 9.76999C12.749 10.07 12.389 10.25 12.019 10.25H7.99902C7.58902 10.25 7.24902 10.59 7.24902 11C7.24902 11.41 7.58902 11.75 7.99902 11.75H12.019C12.869 11.75 13.679 11.34 14.179 10.66L15.9877 8.1874L17.789 10.65C18.289 11.34 19.099 11.75 19.949 11.75Z" fill="#9B9B9B"/>
          <path d="M15.249 4H16.749V28H15.249V4ZM13.0391 20.73C13.1291 20.88 13.2991 20.96 13.4591 20.96C13.5491 20.96 13.6391 20.94 13.6991 20.88C13.9291 20.73 13.9991 20.42 13.8491 20.19L8.47739 11.8516C8.41545 11.646 8.22717 11.5 7.99907 11.5C7.83813 11.5 7.54907 11.77 7.54907 11.77L2.15907 20.15C2.08907 20.23 2.04907 20.34 2.04907 20.46C2.04907 20.74 2.26907 20.96 2.54907 20.96C2.71907 20.96 2.87907 20.87 2.96907 20.73L7.49902 13.6964V20.8C7.49902 21.08 7.71902 21.3 7.99902 21.3C8.27902 21.3 8.49902 21.08 8.49902 20.8V13.6947L13.0391 20.73ZM29.0391 20.73C29.1291 20.88 29.2991 20.96 29.4591 20.96C29.5491 20.96 29.6391 20.94 29.6991 20.88C29.9291 20.73 29.9991 20.42 29.8491 20.19L24.4774 11.8516C24.4154 11.646 24.2272 11.5 23.9991 11.5C23.8381 11.5 23.64 11.655 23.5491 11.77L18.1591 20.15C18.0891 20.23 18.0491 20.34 18.0491 20.46C18.0491 20.74 18.2691 20.96 18.5491 20.96C18.7191 20.96 18.8791 20.87 18.9691 20.73L23.499 13.6964V20.8C23.499 21.08 23.719 21.3 23.999 21.3C24.279 21.3 24.499 21.08 24.499 20.8V13.6947L29.0391 20.73Z" fill="#D3D3D3"/>
          <path d="M17.5891 3.59C17.5891 4.46813 16.8772 5.18 15.9991 5.18C15.1209 5.18 14.4091 4.46813 14.4091 3.59C14.4091 2.71187 15.1209 2 15.9991 2C16.8772 2 17.5891 2.71187 17.5891 3.59Z" fill="#F9C23C"/>
          <path d="M9.58906 11C9.58906 11.8781 8.87719 12.59 7.99906 12.59C7.12092 12.59 6.40906 11.8781 6.40906 11C6.40906 10.1219 7.12092 9.41 7.99906 9.41C8.87719 9.41 9.58906 10.1219 9.58906 11Z" fill="#F9C23C"/>
          <path d="M2.01904 20.64C1.92904 20.32 2.16904 20 2.50904 20H13.489C13.829 20 14.069 20.32 13.979 20.64C13.239 23.2 10.849 25 7.99904 25C5.14904 25 2.75904 23.2 2.01904 20.64Z" fill="#F9C23C"/>
          <path d="M18.019 20.64C17.929 20.32 18.169 20 18.509 20H29.489C29.829 20 30.069 20.32 29.979 20.64C29.239 23.2 26.849 25 23.999 25C21.149 25 18.759 23.2 18.019 20.64Z" fill="#F9C23C"/>
          <path d="M23.3991 30C23.8791 30 24.1091 29.42 23.7591 29.09C21.7391 27.17 19.0091 26 15.9991 26C12.9891 26 10.2591 27.17 8.23908 29.09C7.88908 29.42 8.11908 30 8.59908 30H23.3991Z" fill="#F9C23C"/>
          <path d="M23.9991 12.59C24.8772 12.59 25.5891 11.8781 25.5891 11C25.5891 10.1219 24.8772 9.41 23.9991 9.41C23.1209 9.41 22.4091 10.1219 22.4091 11C22.4091 11.8781 23.1209 12.59 23.9991 12.59Z" fill="#F9C23C"/>
        </g>
      </g>
      <text id="ITEM_5_HEAD" x="500.0" y="862.0" text-anchor="start" font-weight="800" font-size="30" fill="var(--accent-2)" data-bg-id="ITEM_5_BG" fill-opacity="1.0" stroke="none" style="font-size: 30px; font-family: Inter, Segoe UI, Kalam, Roboto, Helvetica, Arial, sans-serif; font-weight: 700; letter-spacing:-0.4px;" data-final-font-size="30">
        <tspan x="500.0" dy="27.13px">Deliberate Choice</tspan>
      </text>
      <rect id="ITEM_5_HEAD_FRAME" x="500" y="862.0" width="760" height="32" fill="none"/>
      <text id="ITEM_5_BODY" x="500.0" y="900.0" text-anchor="start" font-size="24" fill="var(--primary-text)" data-bg-id="ITEM_5_BG" style="font-size: 26px; font-family: Inter, Segoe UI, Kalam, Roboto, Helvetica, Arial, sans-serif; font-weight: 400;" data-final-font-size="26">
        <tspan x="500.0" dy="31.81px">Decide exactly how far back to go and why</tspan>
      </text>
      <rect id="ITEM_5_BODY_FRAME" x="500" y="900.0" width="860" height="72" fill="none"/>
      <text x="1460" y="886.0" text-anchor="end" font-size="18" font-weight="800" fill="var(--accent-5)" opacity="0.70">05</text>
    </g>
  </g>
</svg>
