<?xml version='1.0' encoding='utf-8'?>
<svg xmlns="http://www.w3.org/2000/svg" width="1920" height="1080" viewBox="0 0 1920 1080" data-theme="dark">
  <style>
        @font-face {
            font-family: 'Inter';
            src: url('assets/fonts/Inter-Regular.ttf') format('truetype');
            font-weight: 400;
            font-style: normal;
            font-display: swap;
        }
        @font-face {
            font-family: 'Inter';
            src: url('assets/fonts/Inter-Bold.ttf') format('truetype');
            font-weight: 600;
            font-style: normal;
            font-display: swap;
        }
        @font-face {
            font-family: 'Inter';
            src: url('assets/fonts/Inter-Bold.ttf') format('truetype');
            font-weight: 800;
            font-style: normal;
            font-display: swap;
        }
        
:root {
    --background: #0f172a;
    --panel: #1e293b;
    --primary-text: #f1f5f9;
    --muted-text: #94a3b8;
    --inverse-text: #0f172a;
    --border: #334155;
    --shadow-color: #000000;
    --icon-pad-bg: #1e293b;
    --art-glow: #7dd3fc;
    --art-glow-opacity: 0.18;
    --art-sheen: #ffffff;
    --art-sheen-opacity: 0.18;
    --art-shadow: #000000;
    --art-shadow-opacity: 0.28;
    --art-muted-line: #64748b;
    --art-panel-tint: #1e293b;
    --font-family: 'Inter', 'Segoe UI', 'Kalam', Roboto, Helvetica, Arial, sans-serif;
    --radius-xl: 16px;
    --font-family-headline: 'Inter', 'Segoe UI', 'Kalam', Roboto, Helvetica, Arial, sans-serif;
    --font-family-body: 'Inter', 'Segoe UI', 'Kalam', Roboto, Helvetica, Arial, sans-serif;
    --font-heading: 'Inter', 'Segoe UI', 'Kalam', Roboto, Helvetica, Arial, sans-serif;
    --font-body: 'Inter', 'Segoe UI', 'Kalam', Roboto, Helvetica, Arial, sans-serif;
    --font-size-h1: 56px;
    --font-size-h2: 40px;
    --font-size-h3: 28px;
    --font-size-body: 24px;
    --font-size-caption: 18px;
    --secondary-text: var(--muted-text);
    --panel-border: var(--border);
    --font-weight-normal: 400;
    --font-weight-medium: 500;
    --font-weight-semibold: 600;
    --font-weight-bold: 700;
    --spacing-gutter-pct: 0.07;
    --spacing-top-pct: 0.15;
    --spacing-bottom-pct: 0.07;
    --spacing-title-y-pct: 0.055;
    --accent-1: #fbbf24;
    --accent-2: #fb923c;
    --accent-3: #f87171;
    --accent-4: #a3e635;
    --accent-5: #4ade80;
    --accent-6: #d4a574;
}
:root[data-theme="dark"] {
    --background: #0f172a;
    --panel: #1e293b;
    --primary-text: #f1f5f9;
    --muted-text: #94a3b8;
    --inverse-text: #0f172a;
    --border: #334155;
    --shadow-color: #000000;
    --icon-pad-bg: #1e293b;
    --art-glow: #7dd3fc;
    --art-glow-opacity: 0.18;
    --art-sheen: #ffffff;
    --art-sheen-opacity: 0.18;
    --art-shadow: #000000;
    --art-shadow-opacity: 0.28;
    --art-muted-line: #64748b;
    --art-panel-tint: #1e293b;
    --accent-1: #fbbf24;
    --accent-2: #fb923c;
    --accent-3: #f87171;
    --accent-4: #a3e635;
    --accent-5: #4ade80;
    --accent-6: #d4a574;
}
:root[data-theme="light"] {
    --background: #f8fafc;
    --panel: #ffffff;
    --primary-text: #0f172a;
    --muted-text: #64748b;
    --inverse-text: #ffffff;
    --border: #e2e8f0;
    --shadow-color: #000000;
    --icon-pad-bg: #1e293b;
    --art-glow: #0891b2;
    --art-glow-opacity: 0.10;
    --art-sheen: #ffffff;
    --art-sheen-opacity: 0.34;
    --art-shadow: #0f172a;
    --art-shadow-opacity: 0.14;
    --art-muted-line: #94a3b8;
    --art-panel-tint: #f1f5f9;
    --accent-1: #d97706;
    --accent-2: #ea580c;
    --accent-3: #dc2626;
    --accent-4: #65a30d;
    --accent-5: #16a34a;
    --accent-6: #92400e;
}</style>
  <rect x="0" y="0" width="1.92E+3" height="1.08E+3" fill="#252a34" stroke="none" id="programmatic_background"/>
  <line id="HEADER_DECOR" x1="960.0" x2="1080.0" y1="107.0" y2="107.0" stroke="var(--accent-1)" stroke-width="6" stroke-linecap="round"/>
  <defs>
    <pattern id="svgbe35df54-napkin-hatch" patternUnits="userSpaceOnUse" width="12" height="12">
      <path d="M -3 12 L 12 -3 M 0 15 L 15 0" fill="none" stroke="var(--primary-text)" stroke-width="1" stroke-opacity="0.05"/>
    </pattern>
    <filter id="svgbe35df54-shadow" x="-30%" y="-30%" width="160%" height="160%">
      <feDropShadow dx="0" dy="2" stdDeviation="3" flood-color="#000000" flood-opacity="0.08"/>
      <feDropShadow dx="0" dy="6" stdDeviation="10" flood-color="#000000" flood-opacity="0.12"/>
    </filter>
    <filter id="svgbe35df54-soft-glow" x="-40%" y="-40%" width="180%" height="180%">
      <feDropShadow dx="0" dy="0" stdDeviation="6" flood-color="#000000" flood-opacity="0.12"/>
    </filter>
    <radialGradient id="svgbe35df54-universal-edge-vignette" cx="50%" cy="50%" r="72%">
      <stop offset="0%" stop-color="var(--background)" stop-opacity="0"/>
      <stop offset="72%" stop-color="var(--background)" stop-opacity="0.12"/>
      <stop offset="100%" stop-color="var(--primary-text)" stop-opacity="0.08"/>
    </radialGradient>
    <linearGradient id="svgbe35df54-universal-surface-sheen" x1="0%" y1="0%" x2="100%" y2="100%">
      <stop offset="0%" stop-color="var(--art-sheen)" stop-opacity="var(--art-sheen-opacity)"/>
      <stop offset="46%" stop-color="var(--art-sheen)" stop-opacity="0.035"/>
      <stop offset="100%" stop-color="var(--art-panel-tint)" stop-opacity="0.14"/>
    </linearGradient>
    <radialGradient id="svgbe35df54-universal-icon-aura" cx="50%" cy="42%" r="64%">
      <stop offset="0%" stop-color="var(--art-glow)" stop-opacity="var(--art-glow-opacity)"/>
      <stop offset="100%" stop-color="var(--background)" stop-opacity="0"/>
    </radialGradient>
    <filter id="svgbe35df54-text-glow" x="-20%" y="-20%" width="140%" height="140%">
      <feDropShadow dx="0" dy="0" stdDeviation="2" flood-color="#000000" flood-opacity="0.4"/>
    </filter>
    <marker id="svgbe35df54-arrowhead" markerWidth="10" markerHeight="7" refX="9" refY="3.5" orient="auto" markerUnits="strokeWidth">
      <polygon points="0 0, 10 3.5, 0 7" fill="var(--muted-text)" opacity="0.6"/>
    </marker>
  </defs>
  <rect width="100%" height="100%" fill="var(--background)" id="CANVAS_BG"/>
  <rect width="100%" height="100%" fill="url(#svgbe35df54-napkin-hatch)"/>
  <rect id="UNIVERSAL_EDGE_VIGNETTE" width="100%" height="100%" fill="url(#svgbe35df54-universal-edge-vignette)" opacity="0.62"/>
  <text id="TITLE" x="960.0" y="59" text-anchor="middle" font-weight="800" font-size="58" fill="#f1f5f9" style="font-size: 60px; font-family: Inter, Segoe UI, Kalam, Roboto, Helvetica, Arial, sans-serif; font-weight: 700; letter-spacing:-1.2px;" data-final-font-size="60">
    <tspan x="960.0" dy="68.00px">Familiarity vs. Genuine Mastery</tspan>
  </text>
  <rect id="TITLE_FRAME" x="134" y="44" width="1652" height="110" fill="none"/>
  <g id="DIAGRAM_SCALER">
    <line x1="960" y1="220" x2="960" y2="970" stroke="var(--border)" stroke-width="8" stroke-linecap="round" opacity="0.75"/>
    <line x1="960" y1="245.0" x2="914" y2="245.0" stroke="var(--accent-1)" stroke-width="4" stroke-linecap="round" opacity="0.55"/>
    <circle cx="960" cy="245.0" r="9" fill="var(--accent-1)" opacity="0.95" filter="url(#svgbe35df54-soft-glow)"/>
    <rect id="ITEM_1_BG" x="284.0" y="190.0" width="630.0" height="110.0" rx="55.0" fill="var(--panel)" stroke="var(--accent-1)" stroke-width="3" filter="url(#svgbe35df54-shadow)"/>
    <rect x="894.0" y="190.0" width="20" height="110.0" rx="10" fill="var(--accent-1)" fill-opacity="0.14"/>
    <circle id="ITEM_1_PAD" cx="828.0" cy="245.0" r="42" fill="var(--icon-pad-bg)" stroke="var(--primary-text)" opacity="0.92" fill-opacity="0.9" stroke-width="2"/>
    <circle id="ITEM_1_PAD_INNER" cx="828.0" cy="245.0" r="32.76" fill="var(--accent-3)" fill-opacity="0.22"/>
    <circle cx="828.0" cy="245.0" r="33.6" fill="none" stroke="var(--accent-1)" stroke-width="3" stroke-dasharray="6 4"/>
    <g id="ITEM_1_ICON" transform="translate(802.0, 219.0)" data-icon-size="52" stroke-dasharray="6 4">
      <g transform="translate(-11.439999999999998,-11.439999999999998) scale(2.34)" vector-effect="non-scaling-stroke" fill="#f1f5f9" fill-opacity="1.0" stroke="none">
        <path fill="#f1f5f9" d="M11 11v10h10V11Zm8 8h-6v-6h6Z" vector-effect="non-scaling-stroke" stroke="none"/>
        <path fill="#f1f5f9" d="M30 13v-2h-4V8a2 2 0 0 0-2-2h-3V2h-2v4h-6V2h-2v4H8a2 2 0 0 0-2 2v3H2v2h4v6H2v2h4v3a2 2 0 0 0 2 2h3v4h2v-4h6v4h2v-4h3a2 2 0 0 0 2-2v-3h4v-2h-4v-6Zm-6 11H8V8h16Z" vector-effect="non-scaling-stroke" stroke="none"/>
      </g>
    </g>
    <text id="ITEM_1_HEAD" x="710.0" y="203.0" text-anchor="end" font-weight="bold" font-size="28" fill="var(--accent-3)" data-bg-id="ITEM_1_BG" fill-opacity="1.0" stroke="none" style="font-size: 30px; font-family: Inter, Segoe UI, Kalam, Roboto, Helvetica, Arial, sans-serif; font-weight: 700; letter-spacing:-0.4px;" data-final-font-size="30">
      <tspan x="710.0" dy="28.25px">Pattern Recognition</tspan>
    </text>
    <rect id="ITEM_1_HEAD_FRAME" x="320.0" y="203.0" width="390.0" height="40" fill="none"/>
    <text id="ITEM_1_BODY" x="710.0" y="247.0" text-anchor="end" font-size="20" fill="var(--primary-text)" data-bg-id="ITEM_1_BG" style="font-size: 26px; font-family: Inter, Segoe UI, Kalam, Roboto, Helvetica, Arial, sans-serif; font-weight: 400;" data-final-font-size="26">
      <tspan x="710.0" dy="20.84px">Fast reading uses known</tspan>
      <tspan x="710.0" dy="29.90px">structures to move quickly</tspan>
    </text>
    <rect id="ITEM_1_BODY_FRAME" x="320.0" y="247.0" width="390.0" height="60" fill="none"/>
    <line x1="960" y1="383.0" x2="1006" y2="383.0" stroke="var(--accent-2)" stroke-width="4" stroke-linecap="round" opacity="0.55"/>
    <circle cx="960" cy="383.0" r="9" fill="var(--accent-2)" opacity="0.95" filter="url(#svgbe35df54-soft-glow)"/>
    <rect id="ITEM_2_BG" x="1006.0" y="328.0" width="630.0" height="110.0" rx="55.0" fill="var(--panel)" stroke="var(--accent-2)" stroke-width="3" filter="url(#svgbe35df54-shadow)"/>
    <rect x="1006.0" y="328.0" width="20" height="110.0" rx="10" fill="var(--accent-2)" fill-opacity="0.14"/>
    <circle id="ITEM_2_PAD" cx="1092.0" cy="383.0" r="42" fill="var(--icon-pad-bg)" stroke="var(--primary-text)" opacity="0.92" fill-opacity="0.9" stroke-width="2"/>
    <circle id="ITEM_2_PAD_INNER" cx="1092.0" cy="383.0" r="32.76" fill="var(--accent-4)" fill-opacity="0.22"/>
    <circle cx="1092.0" cy="383.0" r="33.6" fill="none" stroke="var(--accent-2)" stroke-width="3" stroke-dasharray="6 4"/>
    <g id="ITEM_2_ICON" transform="translate(1066.0, 357.0)" data-icon-size="52" stroke-dasharray="6 4">
      <g transform="translate(-10.148965517241377,-10.148965517241379) scale(3.0124137931034483)" vector-effect="non-scaling-stroke" stroke-width="2.34" stroke-linecap="round" stroke-linejoin="round" stroke-opacity="1.0">
        <path d="M2 12C2 8.22876 2 6.34315 3.17157 5.17157C4.34315 4 6.22876 4 10 4H14C17.7712 4 19.6569 4 20.8284 5.17157C22 6.34315 22 8.22876 22 12C22 15.7712 22 17.6569 20.8284 18.8284C19.6569 20 17.7712 20 14 20H10C6.22876 20 4.34315 20 3.17157 18.8284C2 17.6569 2 15.7712 2 12Z" stroke="#f1f5f9" vector-effect="non-scaling-stroke" fill="none"/>
        <path d="M6 8L8.1589 9.79908C9.99553 11.3296 10.9139 12.0949 12 12.0949C13.0861 12.0949 14.0045 11.3296 15.8411 9.79908L18 8" stroke="#f1f5f9" vector-effect="non-scaling-stroke" fill="none"/>
      </g>
    </g>
    <text id="ITEM_2_HEAD" x="1162.0" y="341.0" text-anchor="start" font-weight="bold" font-size="28" fill="var(--accent-4)" data-bg-id="ITEM_2_BG" fill-opacity="1.0" stroke="none" style="font-size: 30px; font-family: Inter, Segoe UI, Kalam, Roboto, Helvetica, Arial, sans-serif; font-weight: 700; letter-spacing:-0.4px;" data-final-font-size="30">
      <tspan x="1162.0" dy="28.25px">Vocabulary Fluency</tspan>
    </text>
    <rect id="ITEM_2_HEAD_FRAME" x="1162.0" y="341.0" width="390.0" height="40" fill="none"/>
    <text id="ITEM_2_BODY" x="1162.0" y="385.0" text-anchor="start" font-size="20" fill="var(--primary-text)" data-bg-id="ITEM_2_BG" style="font-size: 26px; font-family: Inter, Segoe UI, Kalam, Roboto, Helvetica, Arial, sans-serif; font-weight: 400;" data-final-font-size="26">
      <tspan x="1162.0" dy="20.84px">Known words reduce the</tspan>
      <tspan x="1162.0" dy="29.90px">cognitive load of decoding</tspan>
    </text>
    <rect id="ITEM_2_BODY_FRAME" x="1162.0" y="385.0" width="390.0" height="60" fill="none"/>
    <line x1="960" y1="521.0" x2="914" y2="521.0" stroke="var(--accent-3)" stroke-width="4" stroke-linecap="round" opacity="0.55"/>
    <circle cx="960" cy="521.0" r="9" fill="var(--accent-3)" opacity="0.95" filter="url(#svgbe35df54-soft-glow)"/>
    <rect id="ITEM_3_BG" x="284.0" y="466.0" width="630.0" height="110.0" rx="55.0" fill="var(--panel)" stroke="var(--accent-3)" stroke-width="3" filter="url(#svgbe35df54-shadow)"/>
    <rect x="894.0" y="466.0" width="20" height="110.0" rx="10" fill="var(--accent-3)" fill-opacity="0.14"/>
    <circle id="ITEM_3_PAD" cx="828.0" cy="521.0" r="42" fill="var(--icon-pad-bg)" stroke="var(--primary-text)" opacity="0.92" fill-opacity="0.9" stroke-width="2"/>
    <circle id="ITEM_3_PAD_INNER" cx="828.0" cy="521.0" r="32.76" fill="var(--accent-5)" fill-opacity="0.22"/>
    <circle cx="828.0" cy="521.0" r="33.6" fill="none" stroke="var(--accent-3)" stroke-width="3" stroke-dasharray="6 4"/>
    <g id="ITEM_3_ICON" transform="translate(802.0, 495.0)" data-icon-size="52" stroke-dasharray="6 4">
      <g transform="translate(-11.439999999999998,-11.439999999999998) scale(2.34)">
        <rect x="2" y="2" width="28" height="28" rx="4" fill="#00A6ED"/>
        <path d="M16 9.97119C17.0925 9.97119 17.9781 9.08554 17.9781 7.99304C17.9781 6.90054 17.0925 6.01489 16 6.01489C14.9075 6.01489 14.0219 6.90054 14.0219 7.99304C14.0219 9.08554 14.9075 9.97119 16 9.97119Z" fill="white"/>
        <path d="M17.6102 13.7179C17.6102 12.7514 16.8267 11.9679 15.8602 11.9679C14.8937 11.9679 14.1102 12.7514 14.1102 13.7179L14.1102 24.3084C14.1102 25.2749 14.8937 26.0584 15.8602 26.0584C16.8267 26.0584 17.6102 25.2749 17.6102 24.3084L17.6102 13.7179Z" fill="white"/>
      </g>
    </g>
    <text id="ITEM_3_HEAD" x="710.0" y="479.0" text-anchor="end" font-weight="bold" font-size="28" fill="var(--accent-5)" data-bg-id="ITEM_3_BG" fill-opacity="1.0" stroke="none" style="font-size: 30px; font-family: Inter, Segoe UI, Kalam, Roboto, Helvetica, Arial, sans-serif; font-weight: 700; letter-spacing:-0.4px;" data-final-font-size="30">
      <tspan x="710.0" dy="28.25px">Predictive Shortcuts</tspan>
    </text>
    <rect id="ITEM_3_HEAD_FRAME" x="320.0" y="479.0" width="390.0" height="40" fill="none"/>
    <text id="ITEM_3_BODY" x="710.0" y="523.0" text-anchor="end" font-size="20" fill="var(--primary-text)" data-bg-id="ITEM_3_BG" style="font-size: 26px; font-family: Inter, Segoe UI, Kalam, Roboto, Helvetica, Arial, sans-serif; font-weight: 400;" data-final-font-size="26">
      <tspan x="710.0" dy="20.84px">Anticipating arguments allows</tspan>
      <tspan x="710.0" dy="29.90px">focus on new information</tspan>
    </text>
    <rect id="ITEM_3_BODY_FRAME" x="320.0" y="523.0" width="390.0" height="60" fill="none"/>
    <line x1="960" y1="659.0" x2="1006" y2="659.0" stroke="var(--accent-4)" stroke-width="4" stroke-linecap="round" opacity="0.55"/>
    <circle cx="960" cy="659.0" r="9" fill="var(--accent-4)" opacity="0.95" filter="url(#svgbe35df54-soft-glow)"/>
    <rect id="ITEM_4_BG" x="1006.0" y="604.0" width="630.0" height="110.0" rx="55.0" fill="var(--panel)" stroke="var(--accent-4)" stroke-width="3" filter="url(#svgbe35df54-shadow)"/>
    <rect x="1006.0" y="604.0" width="20" height="110.0" rx="10" fill="var(--accent-4)" fill-opacity="0.14"/>
    <circle id="ITEM_4_PAD" cx="1092.0" cy="659.0" r="42" fill="var(--icon-pad-bg)" stroke="var(--primary-text)" opacity="0.92" fill-opacity="0.9" stroke-width="2"/>
    <circle id="ITEM_4_PAD_INNER" cx="1092.0" cy="659.0" r="32.76" fill="var(--accent-6)" fill-opacity="0.22"/>
    <circle cx="1092.0" cy="659.0" r="33.6" fill="none" stroke="var(--accent-4)" stroke-width="3" stroke-dasharray="6 4"/>
    <g id="ITEM_4_ICON" transform="translate(1066.0, 633.0)" data-icon-size="52" stroke-dasharray="6 4">
      <g transform="translate(-14.319999999999999,-14.319999999999999) scale(0.315)" vector-effect="non-scaling-stroke" stroke-width="2.34" stroke-linecap="round" stroke-linejoin="round" stroke-opacity="1.0">
        <path d="M123.31,32H200a8,8,0,0,1,8,8V216a8,8,0,0,1-8,8H56a8,8,0,0,1-8-8V107.31a8,8,0,0,1,2.34-5.65l67.32-67.32A8,8,0,0,1,123.31,32Z" fill="none" stroke="#f1f5f9" vector-effect="non-scaling-stroke"/>
        <line x1="136" y1="64" x2="176" y2="64" fill="none" stroke="#f1f5f9" vector-effect="non-scaling-stroke"/>
        <line x1="80" y1="120" x2="176" y2="192" fill="none" stroke="#f1f5f9" vector-effect="non-scaling-stroke"/>
        <line x1="176" y1="120" x2="80" y2="192" fill="none" stroke="#f1f5f9" vector-effect="non-scaling-stroke"/>
        <path d="M66.34,85.66l-16-16a8,8,0,0,1,0-11.32l24-24a8,8,0,0,1,11.32,0l16,16" fill="none" stroke="#f1f5f9" vector-effect="non-scaling-stroke"/>
      </g>
    </g>
    <text id="ITEM_4_HEAD" x="1162.0" y="617.0" text-anchor="start" font-weight="bold" font-size="28" fill="var(--accent-6)" data-bg-id="ITEM_4_BG" fill-opacity="1.0" stroke="none" style="font-size: 30px; font-family: Inter, Segoe UI, Kalam, Roboto, Helvetica, Arial, sans-serif; font-weight: 700; letter-spacing:-0.4px;" data-final-font-size="30">
      <tspan x="1162.0" dy="28.25px">Overconfidence Bias</tspan>
    </text>
    <rect id="ITEM_4_HEAD_FRAME" x="1162.0" y="617.0" width="390.0" height="40" fill="none"/>
    <text id="ITEM_4_BODY" x="1162.0" y="661.0" text-anchor="start" font-size="20" fill="var(--primary-text)" data-bg-id="ITEM_4_BG" style="font-size: 26px; font-family: Inter, Segoe UI, Kalam, Roboto, Helvetica, Arial, sans-serif; font-weight: 400;" data-final-font-size="26">
      <tspan x="1162.0" dy="20.84px">Certainty can lead to skipping</tspan>
      <tspan x="1162.0" dy="29.90px">critical nuances</tspan>
    </text>
    <rect id="ITEM_4_BODY_FRAME" x="1162.0" y="661.0" width="390.0" height="60" fill="none"/>
    <line x1="960" y1="797.0" x2="914" y2="797.0" stroke="var(--accent-5)" stroke-width="4" stroke-linecap="round" opacity="0.55"/>
    <circle cx="960" cy="797.0" r="9" fill="var(--accent-5)" opacity="0.95" filter="url(#svgbe35df54-soft-glow)"/>
    <rect id="ITEM_5_BG" x="284.0" y="742.0" width="630.0" height="110.0" rx="55.0" fill="var(--panel)" stroke="var(--accent-5)" stroke-width="3" filter="url(#svgbe35df54-shadow)"/>
    <rect x="894.0" y="742.0" width="20" height="110.0" rx="10" fill="var(--accent-5)" fill-opacity="0.14"/>
    <circle id="ITEM_5_PAD" cx="828.0" cy="797.0" r="42" fill="var(--icon-pad-bg)" stroke="var(--primary-text)" opacity="0.92" fill-opacity="0.9" stroke-width="2"/>
    <circle id="ITEM_5_PAD_INNER" cx="828.0" cy="797.0" r="32.76" fill="var(--accent-1)" fill-opacity="0.22"/>
    <circle cx="828.0" cy="797.0" r="33.6" fill="none" stroke="var(--accent-5)" stroke-width="3" stroke-dasharray="6 4"/>
    <g id="ITEM_5_ICON" transform="translate(802.0, 771.0)" data-icon-size="52" stroke-dasharray="6 4">
      <g transform="translate(-9.536271186440676,-9.536271186440676) scale(2.9613559322033898)" vector-effect="non-scaling-stroke" stroke-width="2.34" stroke-linecap="round" stroke-linejoin="round" stroke-opacity="1.0">
        <path d="M2 20a2.4 2.4 0 0 0 2 1a2.4 2.4 0 0 0 2 -1a2.4 2.4 0 0 1 2 -1a2.4 2.4 0 0 1 2 1a2.4 2.4 0 0 0 2 1a2.4 2.4 0 0 0 2 -1a2.4 2.4 0 0 1 2 -1a2.4 2.4 0 0 1 2 1a2.4 2.4 0 0 0 2 1a2.4 2.4 0 0 0 2 -1" vector-effect="non-scaling-stroke" fill="none" stroke="#f1f5f9"/>
        <path d="M2 16a2.4 2.4 0 0 0 2 1a2.4 2.4 0 0 0 2 -1a2.4 2.4 0 0 1 2 -1a2.4 2.4 0 0 1 2 1a2.4 2.4 0 0 0 2 1a2.4 2.4 0 0 0 2 -1a2.4 2.4 0 0 1 2 -1a2.4 2.4 0 0 1 2 1a2.4 2.4 0 0 0 2 1a2.4 2.4 0 0 0 2 -1" vector-effect="non-scaling-stroke" fill="none" stroke="#f1f5f9"/>
        <path d="M15 12v-7.5a1.5 1.5 0 0 1 3 0" vector-effect="non-scaling-stroke" fill="none" stroke="#f1f5f9"/>
        <path d="M9 12v-7.5a1.5 1.5 0 0 0 -3 0" vector-effect="non-scaling-stroke" fill="none" stroke="#f1f5f9"/>
        <path d="M15 5l-6 0" vector-effect="non-scaling-stroke" fill="none" stroke="#f1f5f9"/>
        <path d="M9 10l6 0" vector-effect="non-scaling-stroke" fill="none" stroke="#f1f5f9"/>
      </g>
    </g>
    <text id="ITEM_5_HEAD" x="710.0" y="755.0" text-anchor="end" font-weight="bold" font-size="28" fill="var(--accent-1)" data-bg-id="ITEM_5_BG" fill-opacity="1.0" stroke="none" style="font-size: 30px; font-family: Inter, Segoe UI, Kalam, Roboto, Helvetica, Arial, sans-serif; font-weight: 700; letter-spacing:-0.4px;" data-final-font-size="30">
      <tspan x="710.0" dy="28.25px">Shallow Underst and ing</tspan>
    </text>
    <rect id="ITEM_5_HEAD_FRAME" x="320.0" y="755.0" width="390.0" height="40" fill="none"/>
    <text id="ITEM_5_BODY" x="710.0" y="799.0" text-anchor="end" font-size="20" fill="var(--primary-text)" data-bg-id="ITEM_5_BG" style="font-size: 26px; font-family: Inter, Segoe UI, Kalam, Roboto, Helvetica, Arial, sans-serif; font-weight: 400;" data-final-font-size="26">
      <tspan x="710.0" dy="20.84px">Feeling comfortable does not</tspan>
      <tspan x="710.0" dy="29.90px">equal deep comprehension</tspan>
    </text>
    <rect id="ITEM_5_BODY_FRAME" x="320.0" y="799.0" width="390.0" height="60" fill="none"/>
    <line x1="960" y1="935.0" x2="1006" y2="935.0" stroke="var(--accent-6)" stroke-width="4" stroke-linecap="round" opacity="0.55"/>
    <circle cx="960" cy="935.0" r="9" fill="var(--accent-6)" opacity="0.95" filter="url(#svgbe35df54-soft-glow)"/>
    <rect id="ITEM_6_BG" x="1006.0" y="880.0" width="630.0" height="110.0" rx="55.0" fill="var(--panel)" stroke="var(--accent-6)" stroke-width="3" filter="url(#svgbe35df54-shadow)"/>
    <rect x="1006.0" y="880.0" width="20" height="110.0" rx="10" fill="var(--accent-6)" fill-opacity="0.14"/>
    <circle id="ITEM_6_PAD" cx="1092.0" cy="935.0" r="42" fill="var(--icon-pad-bg)" stroke="var(--primary-text)" opacity="0.92" fill-opacity="0.9" stroke-width="2"/>
    <circle id="ITEM_6_PAD_INNER" cx="1092.0" cy="935.0" r="32.76" fill="var(--accent-2)" fill-opacity="0.22"/>
    <circle cx="1092.0" cy="935.0" r="33.6" fill="none" stroke="var(--accent-6)" stroke-width="3" stroke-dasharray="6 4"/>
    <g id="ITEM_6_ICON" transform="translate(1066.0, 909.0)" data-icon-size="52" stroke-dasharray="6 4">
      <g transform="translate(-9.536271186440676,-9.536271186440676) scale(2.9613559322033898)" vector-effect="non-scaling-stroke" stroke-width="2.34" stroke-linecap="round" stroke-linejoin="round" stroke-opacity="1.0">
        <path d="m16 16 3-8 3 8c-.87.65-1.92 1-3 1s-2.13-.35-3-1Z" vector-effect="non-scaling-stroke" fill="none" stroke="#f1f5f9"/>
        <path d="m2 16 3-8 3 8c-.87.65-1.92 1-3 1s-2.13-.35-3-1Z" vector-effect="non-scaling-stroke" fill="none" stroke="#f1f5f9"/>
        <path d="M7 21h10" vector-effect="non-scaling-stroke" fill="none" stroke="#f1f5f9"/>
        <path d="M12 3v18" vector-effect="non-scaling-stroke" fill="none" stroke="#f1f5f9"/>
        <path d="M3 7h2c2 0 5-1 7-2 2 1 5 2 7 2h2" vector-effect="non-scaling-stroke" fill="none" stroke="#f1f5f9"/>
      </g>
    </g>
    <text id="ITEM_6_HEAD" x="1162.0" y="893.0" text-anchor="start" font-weight="bold" font-size="28" fill="var(--accent-2)" data-bg-id="ITEM_6_BG" fill-opacity="1.0" stroke="none" style="font-size: 30px; font-family: Inter, Segoe UI, Kalam, Roboto, Helvetica, Arial, sans-serif; font-weight: 700; letter-spacing:-0.4px;" data-final-font-size="30">
      <tspan x="1162.0" dy="28.25px">Calibrated Confidence</tspan>
    </text>
    <rect id="ITEM_6_HEAD_FRAME" x="1162.0" y="893.0" width="390.0" height="40" fill="none"/>
    <text id="ITEM_6_BODY" x="1162.0" y="937.0" text-anchor="start" font-size="20" fill="var(--primary-text)" data-bg-id="ITEM_6_BG" style="font-size: 26px; font-family: Inter, Segoe UI, Kalam, Roboto, Helvetica, Arial, sans-serif; font-weight: 400;" data-final-font-size="26">
      <tspan x="1162.0" dy="20.84px">Trust familiarity for patterns</tspan>
      <tspan x="1162.0" dy="29.90px">but question new claims</tspan>
    </text>
    <rect id="ITEM_6_BODY_FRAME" x="1162.0" y="937.0" width="390.0" height="60" fill="none"/>
  </g>
</svg>
